<?xml version="1.0" encoding="UTF-8" standalone="no"?>
<svg
   xmlns:dc="http://purl.org/dc/elements/1.1/"
   xmlns:cc="http://creativecommons.org/ns#"
   xmlns:rdf="http://www.w3.org/1999/02/22-rdf-syntax-ns#"
   xmlns:svg="http://www.w3.org/2000/svg"
   xmlns="http://www.w3.org/2000/svg"
   viewBox="0 0 1600 570.66669"
   height="570.66669"
   width="1600"
   xml:space="preserve"
   id="svg2"
   version="1.1"><metadata
     id="metadata8"><rdf:RDF><cc:Work
         rdf:about=""><dc:format>image/svg+xml</dc:format><dc:type
           rdf:resource="http://purl.org/dc/dcmitype/StillImage" /></cc:Work></rdf:RDF></metadata><defs
     id="defs6"><clipPath
       id="clipPath18"
       clipPathUnits="userSpaceOnUse"><path
         id="path16"
         d="M 0,428 H 1200 V 0 H 0 Z" /></clipPath></defs><g
     transform="matrix(1.3333333,0,0,-1.3333333,0,570.66667)"
     id="g10"><g
       id="g12"><g
         clip-path="url(#clipPath18)"
         id="g14"><g
           transform="translate(1048.749,115.9443)"
           id="g20"><path
             id="path22"
             style="fill:#ffffff;fill-opacity:1;fill-rule:nonzero;stroke:none"
             d="m 0,0 h -890.634 c -6.6,0 -12,5.4 -12,12 v 88.382 c 0,6.6 5.4,12 12,12 H 0 c 6.6,0 12,-5.4 12,-12 V 12 C 12,5.4 6.6,0 0,0" /></g><g
           transform="translate(218.7334,179.9644)"
           id="g24"><path
             id="path26"
             style="fill:#e00a18;fill-opacity:1;fill-rule:nonzero;stroke:none"
             d="m 0,0 0.295,-0.087 0.371,-0.081 0.42,-0.063 0.468,-0.048 0.506,-0.033 0.518,-0.022 0.543,-0.013 0.542,-0.004 h 0.539 0.187 0.23 l 0.292,0.008 0.333,0.006 0.373,0.007 0.871,0.021 0.488,0.014 0.512,0.016 0.543,0.018 0.566,0.016 0.584,0.017 0.606,0.018 1.252,0.047 0.641,0.021 0.648,0.022 0.648,0.025 0.651,0.022 0.648,0.025 0.641,0.025 0.63,0.025 0.617,0.026 0.607,0.026 0.591,0.026 0.566,0.025 0.539,0.027 0.516,0.026 0.488,0.025 0.45,0.02 0.414,0.026 0.363,0.022 0.705,0.057 0.57,0.066 0.489,0.091 0.386,0.101 0.305,0.107 0.221,0.099 0.143,0.084 0.088,0.07 0.057,0.054 0.037,0.053 0.035,0.068 0.043,0.106 0.04,0.158 0.035,0.214 0.031,0.273 0.003,0.289 L 23.827,3.216 23.655,4.113 23.4,4.887 23.067,5.551 22.657,6.141 22.175,6.663 21.616,7.135 20.972,7.557 20.256,7.925 19.474,8.246 18.635,8.51 17.757,8.724 16.844,8.882 15.912,8.992 14.986,9.056 14.07,9.073 13.114,9.051 12.192,8.992 11.306,8.893 10.459,8.766 9.649,8.6 8.875,8.406 8.136,8.187 7.428,7.938 6.763,7.664 6.122,7.374 5.514,7.059 4.945,6.734 4.403,6.389 3.891,6.025 3.409,5.659 2.965,5.278 2.543,4.889 2.151,4.499 1.794,4.102 1.462,3.708 1.161,3.312 0.893,2.923 0.649,2.538 0.441,2.167 0.258,1.809 0.102,1.463 -0.02,1.143 -0.118,0.844 -0.186,0.574 -0.237,0.34 -0.261,0.149 -0.265,0.11 -0.203,0.08 Z" /></g><g
           transform="translate(1025.4912,151.6357)"
           id="g28"><path
             id="path30"
             style="fill:#e00a18;fill-opacity:1;fill-rule:nonzero;stroke:none"
             d="m 0,0 -0.208,-1.307 -0.335,-1.251 -0.461,-1.19 -0.58,-1.127 -0.686,-1.055 -0.78,-0.981 -0.864,-0.913 -0.95,-0.849 -1.011,-0.781 -1.074,-0.727 -1.133,-0.665 -1.187,-0.618 -1.23,-0.568 -1.28,-0.522 -1.323,-0.474 -1.351,-0.433 -1.388,-0.402 -1.419,-0.358 -1.434,-0.326 -1.46,-0.293 -1.48,-0.258 -1.488,-0.228 -1.495,-0.197 -1.506,-0.175 -1.502,-0.146 -1.501,-0.12 -1.487,-0.094 -1.483,-0.068 -1.458,-0.051 -1.438,-0.031 -1.414,-0.007 -1.109,0.003 -1.102,0.019 -1.091,0.029 -1.075,0.038 -1.071,0.048 -1.056,0.059 -1.038,0.065 -1.02,0.076 -1.002,0.077 -0.981,0.084 -0.961,0.095 -0.94,0.093 -0.912,0.103 -0.888,0.103 -0.861,0.106 -0.828,0.111 -0.801,0.106 -0.772,0.112 -0.733,0.111 -0.699,0.112 -0.668,0.109 -0.625,0.108 -0.585,0.106 -0.547,0.103 -0.507,0.097 -0.465,0.096 -0.424,0.09 -0.38,0.084 -0.17,0.039 -0.776,-0.303 -0.838,-0.189 -0.896,-0.106 -25.318,-1.967 -1.265,-0.091 -1.086,-0.032 -1.064,0.084 -1.152,0.368 -1.001,0.81 -0.577,0.973 -0.308,0.875 -0.248,0.895 -0.207,0.872 -0.18,0.738 -0.156,0.649 -0.143,0.56 -0.129,0.468 -0.023,0.089 -0.214,-0.08 -0.647,-0.26 -0.723,-0.299 -0.777,-0.332 -0.806,-0.346 -0.821,-0.359 -0.811,-0.359 -0.794,-0.354 -0.742,-0.332 -0.685,-0.309 -0.611,-0.272 -0.521,-0.226 -0.391,-0.172 -0.936,-0.422 -0.891,-0.393 -0.848,-0.363 -0.81,-0.337 -0.784,-0.307 -0.777,-0.281 -0.779,-0.257 -0.776,-0.226 -0.794,-0.196 -0.819,-0.166 -0.847,-0.138 -0.868,-0.11 -0.919,-0.081 -0.97,-0.055 -1.03,-0.036 -1.103,-0.007 -1.374,0.014 -1.322,0.046 -1.296,0.072 -1.244,0.103 -1.207,0.13 -1.17,0.163 -1.13,0.189 -1.092,0.222 -1.047,0.248 -1.019,0.281 -0.972,0.307 -0.939,0.345 -0.896,0.371 -0.86,0.403 -0.822,0.434 -0.787,0.47 -0.735,0.503 -0.702,0.529 -0.662,0.569 -0.61,0.598 -0.567,0.636 -0.525,0.661 -0.474,0.692 -0.428,0.72 -0.37,0.743 -0.318,0.774 -0.072,0.203 -0.007,-0.021 -0.2,-0.995 -0.211,-0.943 -0.203,-0.883 -0.217,-0.799 -0.237,-0.725 -0.315,-0.76 -0.583,-0.784 -0.618,-0.384 -0.37,-0.188 -0.376,-0.158 -0.399,-0.154 -0.432,-0.155 -0.481,-0.153 -0.523,-0.157 -0.562,-0.163 -0.608,-0.166 -0.658,-0.166 -0.691,-0.171 -0.726,-0.172 -0.769,-0.169 -0.808,-0.172 -0.841,-0.17 -0.875,-0.167 -0.902,-0.163 -0.933,-0.161 -0.966,-0.157 -0.987,-0.149 -1.011,-0.141 -1.03,-0.137 -1.052,-0.129 -1.071,-0.12 -1.089,-0.109 -1.105,-0.096 -1.113,-0.084 -1.129,-0.073 -1.131,-0.056 -1.148,-0.043 -1.146,-0.026 -1.156,-0.007 -1.988,0.025 -1.974,0.082 -1.955,0.128 -1.937,0.183 -1.91,0.234 -1.882,0.282 -1.854,0.334 -1.826,0.383 -1.784,0.431 -1.749,0.478 -1.705,0.529 -1.666,0.577 -1.621,0.627 -1.566,0.669 -1.517,0.724 -1.465,0.767 -1.404,0.811 -1.342,0.866 -1.282,0.909 -1.211,0.961 -1.14,1.008 -1.071,1.058 -0.986,1.11 -0.906,1.156 -0.821,1.208 -0.726,1.254 -0.627,1.307 -0.519,1.349 -0.414,1.391 -0.299,1.435 -0.179,1.467 -0.064,1.499 0.064,1.568 0.197,1.544 0.329,1.51 0.447,1.473 0.566,1.434 0.679,1.387 0.789,1.349 0.892,1.297 0.991,1.251 1.086,1.2 1.17,1.156 1.255,1.105 1.339,1.055 1.418,1.008 1.491,0.96 1.574,0.908 1.628,0.863 1.706,0.81 1.761,0.76 1.83,0.709 1.882,0.656 1.947,0.607 1.991,0.551 2.048,0.499 2.091,0.444 2.14,0.383 2.189,0.334 2.217,0.273 2.261,0.213 2.293,0.153 2.327,0.096 2.346,0.028 0.733,-0.003 0.718,-0.008 0.724,-0.014 0.715,-0.02 0.722,-0.026 0.712,-0.035 0.709,-0.034 0.709,-0.042 0.705,-0.043 0.691,-0.052 0.693,-0.055 0.682,-0.06 0.674,-0.063 0.662,-0.069 0.654,-0.072 0.648,-0.073 0.631,-0.078 0.624,-0.083 0.607,-0.088 0.597,-0.084 0.58,-0.089 0.562,-0.094 0.546,-0.098 0.539,-0.099 0.517,-0.098 0.497,-0.106 0.485,-0.107 0.465,-0.107 0.444,-0.11 0.424,-0.116 0.403,-0.115 0.465,-0.147 0.644,-0.258 0.628,-0.379 0.563,-0.488 0.464,-0.593 0.336,-0.675 0.187,-0.718 0.03,-0.709 -0.084,-0.588 -2.405,-9.437 -0.095,-0.448 -0.255,-0.7 -0.495,-0.751 -0.725,-0.623 -0.838,-0.402 -0.844,-0.217 -0.885,-0.107 -0.942,-0.034 h -5.959 l -0.818,0.034 -0.966,0.274 -0.814,0.439 -0.654,0.517 -0.543,0.529 -0.489,0.534 -0.488,0.546 -0.461,0.504 -0.098,0.073 -0.205,0.135 -0.291,0.175 -0.362,0.193 -0.434,0.212 -0.496,0.218 -0.556,0.218 -0.614,0.219 -0.665,0.203 -0.717,0.188 -0.768,0.166 -0.809,0.138 -0.856,0.107 -0.894,0.064 -0.952,0.025 -0.429,-0.005 -0.475,-0.02 -0.495,-0.03 -0.519,-0.052 -0.54,-0.063 -0.548,-0.082 -0.56,-0.102 -0.573,-0.12 -0.57,-0.141 -0.576,-0.166 -0.577,-0.183 -0.562,-0.206 -0.564,-0.23 -0.549,-0.256 -0.536,-0.281 -0.522,-0.304 -0.502,-0.33 -0.489,-0.354 -0.462,-0.383 -0.436,-0.41 -0.414,-0.439 -0.39,-0.47 -0.363,-0.504 -0.331,-0.537 -0.31,-0.581 -0.271,-0.614 -0.24,-0.666 -0.204,-0.713 -0.164,-0.765 -0.122,-0.814 -0.077,-0.879 -0.027,-0.936 0.023,-0.789 0.073,-0.752 0.111,-0.717 0.152,-0.678 0.194,-0.649 0.23,-0.619 0.265,-0.593 0.302,-0.563 0.335,-0.538 0.371,-0.519 0.399,-0.493 0.435,-0.473 0.47,-0.453 0.499,-0.431 0.532,-0.404 0.56,-0.389 0.59,-0.368 0.614,-0.34 0.64,-0.321 0.666,-0.296 0.688,-0.276 0.708,-0.248 0.724,-0.226 0.742,-0.203 0.753,-0.181 0.769,-0.154 0.777,-0.132 0.786,-0.103 0.794,-0.086 0.794,-0.058 0.797,-0.035 0.806,-0.008 h 0.523 l 0.519,0.013 0.512,0.017 0.505,0.025 0.499,0.03 0.491,0.039 0.487,0.042 0.487,0.051 0.481,0.061 0.482,0.063 0.474,0.069 0.475,0.076 0.475,0.082 0.478,0.09 0.479,0.089 0.488,0.101 0.48,0.103 0.493,0.115 0.496,0.115 0.495,0.124 0.508,0.129 0.516,0.133 0.515,0.14 0.529,0.144 0.542,0.151 0.546,0.153 0.557,0.157 0.566,0.169 0.58,0.165 0.594,0.175 0.606,0.18 0.59,0.17 0.146,0.048 0.211,0.081 0.301,0.109 0.353,0.142 0.397,0.157 0.427,0.176 0.451,0.178 0.461,0.185 0.465,0.183 0.461,0.174 0.452,0.167 0.434,0.158 0.417,0.131 0.41,0.125 0.444,0.099 0.563,0.064 0.858,-0.09 0.841,-0.316 0.284,-0.222 0.143,0.509 0.251,0.788 0.279,0.756 0.302,0.713 0.321,0.678 0.339,0.637 0.354,0.601 0.365,0.56 0.381,0.516 0.386,0.479 0.427,0.457 0.482,0.43 0.543,0.393 0.563,0.329 0.59,0.282 0.597,0.239 0.617,0.2 0.63,0.171 0.645,0.143 0.661,0.125 0.674,0.112 0.699,0.092 0.712,0.087 0.738,0.077 0.755,0.073 0.773,0.071 0.78,0.069 23.663,2.343 1.075,0.108 0.91,0.104 0.762,0.112 0.621,0.119 0.465,0.124 0.316,0.112 0.169,0.085 0.061,0.042 v 0.005 l 0.033,0.073 0.052,0.186 0.051,0.321 0.037,0.458 0.026,0.58 0.004,0.562 -0.051,0.428 -0.087,0.225 -0.174,0.24 -0.302,0.278 -0.474,0.298 -0.628,0.298 -0.758,0.265 -0.863,0.231 -0.928,0.188 -0.98,0.149 -0.994,0.107 -0.977,0.077 -0.943,0.047 -0.889,0.031 -0.806,0.008 -0.696,0.003 -0.596,-0.003 -0.598,-0.008 -0.583,-0.014 -0.58,-0.021 -0.569,-0.027 -0.567,-0.029 -0.556,-0.033 -0.556,-0.039 -0.549,-0.048 -0.547,-0.046 -0.549,-0.055 -0.54,-0.057 -0.542,-0.064 -0.539,-0.068 -0.542,-0.068 -0.537,-0.076 -0.538,-0.078 -0.543,-0.081 -0.543,-0.089 -0.539,-0.09 -0.546,-0.09 -0.553,-0.098 -0.549,-0.098 -0.561,-0.102 -0.558,-0.107 -0.567,-0.106 -0.569,-0.113 -0.579,-0.11 -0.581,-0.115 -0.59,-0.12 -1.194,-0.238 -0.338,-0.072 -0.387,-0.082 -0.418,-0.09 -0.437,-0.089 -0.451,-0.094 -0.458,-0.095 -0.459,-0.093 -0.436,-0.09 -0.424,-0.084 -0.401,-0.082 -0.365,-0.073 -0.327,-0.064 -0.277,-0.054 -0.234,-0.043 -0.224,-0.039 -0.373,-0.043 -0.844,0.082 -0.9,0.324 -0.799,0.669 -0.471,0.845 -0.182,0.764 -0.016,0.625 0.049,0.503 0.046,0.293 0.482,5.951 0.233,1.096 0.391,1.016 0.559,0.897 0.692,0.746 0.76,0.573 0.777,0.426 0.76,0.32 0.731,0.253 0.181,0.06 0.224,0.064 0.263,0.073 0.307,0.08 0.348,0.089 0.393,0.095 0.448,0.102 0.492,0.111 0.542,0.114 0.583,0.123 0.628,0.122 0.681,0.127 0.717,0.128 0.762,0.133 0.808,0.132 0.854,0.129 0.892,0.128 0.936,0.128 0.976,0.124 1.021,0.124 1.058,0.115 1.092,0.105 1.14,0.107 1.178,0.095 1.213,0.09 1.251,0.079 1.29,0.07 1.325,0.059 1.363,0.047 1.394,0.035 1.43,0.025 1.463,0.003 h 0.271 0.305 0.36 l 0.393,-0.003 0.434,-0.005 0.475,-0.003 0.508,-0.009 0.546,-0.013 0.581,-0.012 0.599,-0.022 0.638,-0.021 0.662,-0.027 0.688,-0.034 0.708,-0.033 0.727,-0.043 0.749,-0.048 0.762,-0.054 0.785,-0.061 0.793,-0.072 0.799,-0.077 0.823,-0.085 0.819,-0.093 0.831,-0.104 0.838,-0.11 0.838,-0.124 0.837,-0.132 0.838,-0.146 0.837,-0.149 0.829,-0.171 0.826,-0.178 0.821,-0.193 0.838,-0.214 1.894,-0.58 1.707,-0.661 1.509,-0.731 1.329,-0.785 1.157,-0.849 0.987,-0.887 0.827,-0.926 0.678,-0.944 0.53,-0.943 0.406,-0.926 0.286,-0.889 0.196,-0.836 0.108,-0.765 0.062,-0.678 0.016,-0.571 0.011,-0.475 -0.011,-0.26 -0.007,-0.316 -0.016,-0.354 -0.025,-0.393 -0.022,-0.431 -0.03,-0.457 -0.029,-0.473 -0.027,-0.475 -0.03,-0.476 -0.03,-0.467 -0.028,-0.438 -0.02,-0.406 -0.024,-0.363 -0.009,-0.303 -0.011,-0.231 -0.007,-0.242 -0.053,-0.709 -0.042,-0.59 -0.024,-0.566 -0.016,-0.543 -0.014,-0.526 -0.002,-0.499 v -0.485 -0.817 -0.397 -0.43 l 0.002,-0.467 0.003,-0.495 0.011,-0.524 0.007,-0.554 0.016,-0.573 0.017,-0.597 0.028,-0.607 0.022,-0.622 0.035,-0.633 0.041,-0.639 0.047,-0.64 0.051,-0.64 0.057,-0.642 0.069,-0.631 0.078,-0.62 0.085,-0.599 0.092,-0.591 0.101,-0.562 0.106,-0.538 0.121,-0.504 0.126,-0.474 0.129,-0.431 0.135,-0.384 0.133,-0.334 0.131,-0.272 0.123,-0.209 0.098,-0.138 0.054,-0.067 0.065,-0.051 0.061,-0.043 0.084,-0.055 0.082,-0.042 0.101,-0.047 0.119,-0.048 0.163,-0.046 0.204,-0.056 0.257,-0.056 0.316,-0.056 0.369,-0.059 0.428,-0.06 0.496,-0.06 0.555,-0.064 0.623,-0.073 0.661,-0.068 0.317,2.476 0.068,0.581 0.142,0.724 0.403,0.935 0.845,0.841 0.99,0.42 0.871,0.153 0.862,0.055 0.966,0.008 h 3.079 l 0.788,-0.034 0.844,-0.152 0.808,-0.329 0.674,-0.434 0.566,-0.456 0.569,-0.494 0.687,-0.586 0.949,-0.763 0.162,-0.137 0.207,-0.183 0.271,-0.227 0.349,-0.268 0.428,-0.312 0.512,-0.336 0.597,-0.36 0.681,-0.366 0.777,-0.367 0.865,-0.355 0.95,-0.329 1.051,-0.295 1.138,-0.248 1.242,-0.191 1.34,-0.127 1.458,-0.044 1.143,0.027 1.068,0.079 0.974,0.121 0.884,0.163 0.794,0.192 0.71,0.216 0.616,0.236 0.52,0.243 0.433,0.248 0.347,0.236 0.257,0.211 0.166,0.176 0.071,0.093 v 0.009 l -0.021,0.081 -0.019,0.057 -0.059,0.08 -0.134,0.145 -0.265,0.218 -0.411,0.269 -0.563,0.311 -0.725,0.347 -0.878,0.383 -1.039,0.413 -1.2,0.459 -1.357,0.489 -1.525,0.543 -1.706,0.598 -1.872,0.649 -1.069,0.365 -1.061,0.372 -1.061,0.371 -1.049,0.372 -1.04,0.375 -1.028,0.375 -1.018,0.385 -0.997,0.394 -0.983,0.397 -0.964,0.404 -0.948,0.416 -0.924,0.426 -0.901,0.439 -0.881,0.448 -0.859,0.47 -0.827,0.483 -0.798,0.503 -0.772,0.522 -0.743,0.544 -0.705,0.569 -0.67,0.594 -0.638,0.627 -0.595,0.656 -0.546,0.691 -0.495,0.722 -0.445,0.765 -0.394,0.796 -0.318,0.829 -0.26,0.863 -0.183,0.892 -0.113,0.912 -0.037,0.953 0.051,1.053 0.163,1.047 0.265,1.02 0.362,0.986 0.458,0.952 0.539,0.904 0.625,0.872 0.694,0.824 0.77,0.785 0.837,0.746 0.896,0.709 0.956,0.674 1.014,0.636 1.072,0.602 1.122,0.572 1.187,0.537 1.231,0.503 1.28,0.475 1.321,0.443 1.381,0.415 1.421,0.375 1.465,0.352 1.505,0.318 1.553,0.287 1.587,0.252 1.625,0.221 1.662,0.188 1.696,0.153 1.729,0.12 1.765,0.09 1.785,0.051 1.818,0.016 0.801,-0.003 0.811,-0.013 0.823,-0.02 0.834,-0.031 0.855,-0.033 0.855,-0.043 0.861,-0.049 0.861,-0.055 0.87,-0.059 0.863,-0.065 0.859,-0.068 0.854,-0.072 0.843,-0.072 0.835,-0.081 0.819,-0.083 0.809,-0.083 0.786,-0.088 0.765,-0.084 0.738,-0.084 0.723,-0.087 0.689,-0.09 0.664,-0.089 0.621,-0.085 0.6,-0.085 0.552,-0.086 0.522,-0.081 0.479,-0.077 0.444,-0.081 0.397,-0.072 0.356,-0.073 0.329,-0.076 0.342,-0.095 0.797,-0.29 0.754,-0.38 0.739,-0.588 0.579,-0.855 0.248,-0.917 0.024,-0.74 L -2.913,30.112 -2.981,29.564 -4.382,21.409 -5.18,20.584 -5.657,20.213 -6.19,19.92 -6.742,19.71 -7.288,19.573 -7.827,19.492 -8.371,19.454 -8.899,19.446 h -3.059 l -0.598,0.004 -0.586,0.029 -0.624,0.09 -0.668,0.191 -0.662,0.343 -0.552,0.453 -0.414,0.469 -0.289,0.392 -0.369,0.5 -0.366,0.479 -0.369,0.442 -0.38,0.418 -0.396,0.386 -0.428,0.362 -0.468,0.341 -0.529,0.322 -0.604,0.301 -0.698,0.283 -0.808,0.256 -0.922,0.226 -1.058,0.183 -1.207,0.145 -1.357,0.09 -1.515,0.029 -1.16,-0.025 -1.062,-0.074 -0.964,-0.118 -0.86,-0.149 -0.761,-0.184 -0.667,-0.205 -0.569,-0.227 -0.473,-0.234 -0.383,-0.23 -0.295,-0.223 -0.213,-0.199 -0.139,-0.171 -0.085,-0.133 -0.041,-0.093 -0.014,-0.061 -0.006,-0.051 0.006,-0.085 0.014,-0.059 0.031,-0.061 0.061,-0.102 0.125,-0.155 0.23,-0.211 0.343,-0.256 0.461,-0.301 0.592,-0.328 0.708,-0.35 0.833,-0.374 0.967,-0.402 1.092,-0.423 1.221,-0.444 1.357,-0.479 1.496,-0.502 1.257,-0.419 1.203,-0.4 1.148,-0.386 1.095,-0.362 1.041,-0.347 0.984,-0.332 0.944,-0.321 0.894,-0.303 0.847,-0.293 0.811,-0.287 0.767,-0.273 0.729,-0.264 0.697,-0.262 0.669,-0.251 0.63,-0.247 0.607,-0.244 0.581,-0.242 0.554,-0.239 0.527,-0.244 0.519,-0.242 0.498,-0.244 0.479,-0.247 0.461,-0.258 0.451,-0.255 0.444,-0.265 0.428,-0.269 0.416,-0.281 0.414,-0.286 0.407,-0.296 0.407,-0.307 0.397,-0.311 L -4.271,9.97 -3.924,9.675 -3.567,9.356 -3.205,9.005 -2.836,8.63 -2.47,8.215 -2.109,7.771 -1.754,7.294 -1.422,6.776 -1.105,6.223 -0.825,5.635 -0.57,5.008 -0.347,4.341 -0.174,3.64 -0.042,2.911 0.037,2.146 0.067,1.331 Z m -206.769,-11.781 -0.086,-0.833 -0.374,-0.943 -0.655,-0.789 -0.786,-0.485 -0.715,-0.239 -0.594,-0.09 -0.475,-0.027 -0.366,-0.003 h -0.205 l -0.203,0.003 -0.209,0.004 -0.213,0.008 -0.21,0.006 -0.232,0.009 -0.248,0.008 -0.257,0.008 -0.27,0.009 -0.306,0.012 -0.661,0.025 -0.38,0.01 -0.404,0.012 -0.444,0.013 -0.479,0.018 -1.064,0.021 -0.597,0.012 -0.641,0.018 -0.691,0.008 -0.815,0.011 -1.556,0.023 -0.903,0.009 -0.963,0.007 -1.017,0.009 -1.088,0.005 -1.146,0.003 -1.222,0.007 -1.292,0.002 h -1.356 -1.751 l -1.651,-0.002 -1.557,-0.007 -1.467,-0.003 -1.381,-0.005 -1.291,-0.009 -1.214,-0.007 -1.133,-0.009 -1.059,-0.012 -0.987,-0.011 -0.919,-0.011 -0.844,-0.008 -0.791,-0.018 -0.772,-0.012 -1.242,-0.027 -0.566,-0.012 -0.521,-0.013 -0.476,-0.012 -0.433,-0.01 -0.679,-0.025 -0.418,-0.012 -0.308,-0.009 -0.281,-0.008 -0.264,-0.008 -0.249,-0.009 -0.23,-0.006 -0.224,-0.008 -0.22,-0.004 -0.214,-0.003 h -0.288 l -0.821,0.058 -0.858,0.222 -0.549,0.29 -0.407,-0.234 -0.691,-0.216 -0.574,-0.087 -0.448,-0.03 -0.328,-0.003 h -0.55 l -0.567,0.003 -0.593,0.009 -0.607,0.003 -0.626,0.009 -0.646,0.014 -0.665,0.008 -0.681,0.012 -0.685,0.014 -0.709,0.015 -0.719,0.015 -0.715,0.018 -0.736,0.016 -0.743,0.017 -0.741,0.016 -0.745,0.018 -0.749,0.017 -0.753,0.017 -0.746,0.017 -0.746,0.016 -0.743,0.017 -0.735,0.018 -0.733,0.013 -0.715,0.012 -0.716,0.014 -0.7,0.012 -0.686,0.01 -0.669,0.009 -0.658,0.008 -0.637,0.003 -0.62,0.006 h -0.601 -0.604 l -0.627,-0.006 -0.641,-0.003 -0.655,-0.008 -0.661,-0.009 -0.668,-0.01 -0.675,-0.012 -0.684,-0.014 -0.693,-0.012 -0.684,-0.013 -1.381,-0.035 -0.693,-0.016 -0.68,-0.017 -0.682,-0.017 -0.671,-0.017 -0.666,-0.018 -0.654,-0.016 -0.648,-0.017 -0.63,-0.016 -0.618,-0.018 -0.603,-0.015 -0.587,-0.015 -0.566,-0.014 -0.546,-0.012 -0.525,-0.008 -0.51,-0.014 -0.477,-0.009 -0.452,-0.003 -0.427,-0.009 -0.399,-0.003 h -0.453 l -0.813,0.058 -0.861,0.222 -0.817,0.428 -0.662,0.64 -0.417,0.721 -0.186,0.658 -0.062,0.495 -0.004,0.293 v 2.174 l 0.069,0.813 0.37,1.016 0.742,0.851 0.834,0.52 0.801,0.325 0.851,0.268 0.99,0.273 1.218,0.326 1.343,0.324 0.956,0.264 0.573,0.217 0.2,0.116 0.003,0.013 0.068,0.324 0.038,0.765 v 14.732 l -0.004,1.354 -0.013,1.203 -0.021,1.068 -0.037,0.936 -0.047,0.806 -0.062,0.691 -0.067,0.576 -0.082,0.465 -0.084,0.362 -0.089,0.274 -0.081,0.205 -0.081,0.154 -0.095,0.132 -0.119,0.142 -0.162,0.171 -0.218,0.195 -0.274,0.226 -0.285,0.206 -0.316,0.196 -0.343,0.192 -0.365,0.183 -0.4,0.172 -0.425,0.157 -0.443,0.144 -0.468,0.133 -0.492,0.115 -0.506,0.098 -0.522,0.087 -0.54,0.062 -0.556,0.048 -0.563,0.025 -0.565,0.014 -0.771,-0.022 -0.766,-0.051 -0.777,-0.09 -0.775,-0.124 -0.779,-0.158 -0.765,-0.192 -0.75,-0.222 -0.729,-0.246 -0.709,-0.282 -0.675,-0.308 -0.648,-0.328 -0.606,-0.354 -0.564,-0.372 -0.512,-0.384 -0.461,-0.401 -0.392,-0.393 -0.274,-0.324 -0.243,-0.377 -0.243,-0.46 -0.231,-0.534 -0.21,-0.589 -0.184,-0.627 -0.162,-0.657 -0.14,-0.671 -0.115,-0.673 -0.095,-0.658 -0.078,-0.632 -0.05,-0.597 -0.041,-0.546 -0.024,-0.484 -0.011,-0.4 -0.006,-0.33 V 4.455 l 0.006,-0.469 V 3.423 l 0.008,-0.644 0.01,-0.706 0.007,-0.746 0.023,-0.767 0.028,-0.783 0.03,-0.767 0.037,-0.735 0.055,-0.682 0.054,-0.612 0.065,-0.506 0.057,-0.354 0.031,-0.13 0.067,-0.158 0.075,-0.196 0.037,-0.021 0.217,-0.081 0.316,-0.102 0.42,-0.117 0.519,-0.127 0.634,-0.14 0.743,-0.15 0.849,-0.166 0.976,-0.185 1.041,-0.194 0.881,-0.185 0.794,-0.209 0.807,-0.308 0.847,-0.567 0.675,-0.9 0.293,-0.965 0.05,-0.74 v -2.249 l -0.077,-0.772 -0.32,-0.892 -0.599,-0.788 -0.746,-0.526 -0.723,-0.277 -0.621,-0.117 -0.523,-0.042 -0.44,-0.007 h -0.383 l -0.414,0.003 -0.458,0.009 -0.495,0.003 -0.529,0.009 -0.57,0.014 -0.596,0.008 -0.628,0.012 -0.655,0.014 -0.674,0.015 -0.7,0.015 -0.708,0.018 -0.721,0.016 -0.735,0.017 -0.737,0.016 -0.74,0.018 -0.739,0.017 -0.736,0.017 -0.733,0.017 -0.716,0.016 -0.705,0.017 -0.686,0.018 -0.668,0.013 -0.643,0.012 -0.614,0.014 -0.583,0.012 -0.556,0.01 -0.513,0.009 -0.47,0.008 -0.431,0.003 -0.381,0.006 h -0.321 -0.343 l -0.427,-0.006 -0.509,-0.003 -0.577,-0.008 -1.26,-0.019 -0.838,-0.012 -0.795,-0.014 -0.843,-0.012 -0.876,-0.013 -0.908,-0.018 -0.933,-0.017 -0.945,-0.016 -0.96,-0.017 -0.971,-0.017 -0.97,-0.017 -0.962,-0.018 -0.954,-0.016 -0.943,-0.017 -0.912,-0.016 -0.892,-0.018 -0.854,-0.015 -0.821,-0.015 -0.77,-0.014 -0.723,-0.012 -0.671,-0.008 -0.602,-0.014 -0.54,-0.009 -0.464,-0.003 -0.394,-0.009 -0.316,-0.003 h -0.291 l -0.794,0.049 -0.831,0.194 -0.817,0.397 -0.689,0.627 -0.443,0.746 -0.198,0.684 -0.058,0.508 -0.003,0.31 v 2.152 l 0.045,0.726 0.265,0.931 0.627,0.894 0.813,0.586 0.776,0.324 0.744,0.219 0.807,0.183 0.937,0.2 1.125,0.231 0.972,0.212 0.846,0.198 0.708,0.188 0.58,0.17 0.444,0.157 0.309,0.137 0.18,0.102 0.054,0.04 0.027,0.09 0.034,0.207 0.021,0.334 0.006,0.461 v 15.507 l -0.006,1.194 -0.028,1.063 -0.048,0.952 -0.06,0.841 -0.077,0.733 -0.096,0.633 -0.106,0.532 -0.115,0.445 -0.118,0.36 -0.126,0.289 -0.122,0.231 -0.129,0.192 -0.136,0.171 -0.163,0.17 -0.192,0.176 -0.231,0.178 -0.261,0.184 -0.289,0.175 -0.308,0.172 -0.332,0.157 -0.35,0.153 -0.376,0.14 -0.397,0.133 -0.411,0.12 -0.429,0.106 -0.449,0.094 -0.465,0.082 -0.474,0.064 -0.493,0.051 -0.501,0.039 -0.511,0.026 -0.512,0.008 -0.865,-0.026 -0.829,-0.061 -0.799,-0.101 -0.777,-0.133 -0.743,-0.171 -0.719,-0.196 -0.688,-0.217 -0.65,-0.243 -0.615,-0.261 -0.591,-0.278 -0.541,-0.285 -0.502,-0.295 -0.468,-0.299 -0.417,-0.295 -0.366,-0.29 -0.309,-0.265 -0.509,-0.5 -0.421,-0.512 -0.376,-0.536 -0.325,-0.578 -0.282,-0.591 -0.237,-0.611 -0.207,-0.627 -0.16,-0.628 -0.129,-0.629 -0.097,-0.609 -0.072,-0.593 -0.047,-0.559 -0.032,-0.527 -0.013,-0.477 -0.003,-0.425 V 10.243 4.455 3.981 3.415 2.766 l 0.007,-0.713 0.006,-0.751 0.007,-0.779 0.014,-0.787 0.017,-0.782 0.02,-0.752 0.027,-0.703 0.031,-0.642 0.034,-0.55 0.033,-0.425 0.024,-0.203 0.028,-0.017 0.104,-0.058 0.184,-0.083 0.258,-0.098 0.315,-0.102 0.397,-0.114 0.464,-0.119 0.529,-0.124 0.6,-0.129 0.665,-0.14 0.77,-0.158 0.695,-0.164 0.678,-0.187 0.676,-0.248 0.695,-0.355 0.695,-0.532 0.608,-0.756 0.372,-0.926 0.098,-0.832 v -2.326 l -0.092,-0.825 -0.378,-0.92 -0.643,-0.76 -0.735,-0.478 -0.692,-0.252 -0.596,-0.117 -0.499,-0.042 -0.407,-0.007 h -0.401 l -0.396,0.003 -0.414,0.009 -0.434,0.003 -0.445,0.009 -0.46,0.014 -0.479,0.008 -0.492,0.012 -0.498,0.014 -0.521,0.015 -0.531,0.015 -0.528,0.018 -0.547,0.016 -0.557,0.017 -0.562,0.016 -0.569,0.018 -0.574,0.017 -0.58,0.017 -0.589,0.017 -0.589,0.016 -1.162,0.035 -0.613,0.013 -0.594,0.012 -0.592,0.014 -0.59,0.012 -0.587,0.01 -0.591,0.009 -0.58,0.008 -0.572,0.003 -0.567,0.006 h -0.559 -0.557 l -0.611,-0.006 -0.661,-0.003 -0.699,-0.008 -0.742,-0.009 -0.783,-0.01 -1.62,-0.021 -0.9,-0.017 -0.884,-0.013 -0.907,-0.018 -0.911,-0.017 -0.925,-0.016 -0.934,-0.017 -0.929,-0.017 -0.923,-0.017 -0.916,-0.018 -0.908,-0.016 -0.898,-0.017 -0.872,-0.016 -0.848,-0.018 -0.823,-0.015 -0.791,-0.015 -0.756,-0.014 -0.719,-0.012 -0.676,-0.008 -0.631,-0.014 -0.576,-0.009 -0.528,-0.003 -0.472,-0.009 -0.411,-0.003 h -0.424 l -0.786,0.058 -0.838,0.231 -0.766,0.41 -0.624,0.568 -0.428,0.645 -0.244,0.627 -0.105,0.542 -0.027,0.389 v 2.214 l 0.061,0.785 0.336,0.979 0.689,0.857 0.82,0.532 0.77,0.304 0.753,0.209 0.81,0.185 0.93,0.192 1.054,0.23 0.939,0.205 0.805,0.183 0.692,0.166 0.563,0.15 0.45,0.137 0.325,0.116 0.211,0.088 0.044,0.027 0.007,0.016 0.054,0.187 0.05,0.202 v 0.034 l 0.018,0.23 0.024,0.363 0.017,0.466 0.01,0.533 0.017,0.598 0.01,0.643 0.007,0.675 0.007,0.693 0.004,0.703 0.002,0.692 0.004,0.674 v 0.645 0.602 0.54 0.484 8.117 l -0.006,0.458 -0.018,0.562 -0.044,0.666 -0.055,0.747 -0.078,0.813 -0.097,0.857 -0.12,0.892 -0.145,0.901 -0.162,0.895 -0.188,0.871 -0.215,0.832 -0.229,0.769 -0.248,0.683 -0.247,0.575 -0.248,0.441 -0.247,0.337 -0.051,0.06 -0.065,0.063 -0.034,0.03 -0.016,0.013 -0.034,0.017 -0.082,0.034 -0.145,0.056 -0.22,0.063 -0.309,0.073 -0.401,0.076 -0.487,0.087 -0.584,0.092 -0.688,0.099 -0.832,0.116 -1.862,0.247 -0.868,0.12 -0.8,0.149 -0.732,0.201 -0.726,0.307 -0.735,0.504 -0.614,0.759 -0.327,0.874 -0.064,0.676 v 1.843 l 0.028,0.663 0.165,0.849 0.492,0.947 0.824,0.725 0.866,0.38 0.789,0.188 0.791,0.107 0.871,0.081 0.977,0.073 0.997,0.076 1.045,0.082 1.078,0.09 1.106,0.089 1.136,0.089 1.152,0.098 1.166,0.099 1.188,0.098 1.187,0.102 1.198,0.098 1.193,0.104 1.187,0.102 1.172,0.103 1.157,0.096 1.143,0.098 1.116,0.095 1.085,0.093 1.052,0.092 1.017,0.084 0.968,0.081 0.926,0.081 0.873,0.068 0.817,0.07 0.76,0.059 0.692,0.055 0.624,0.047 0.55,0.042 0.473,0.031 0.401,0.025 0.333,0.017 0.329,0.008 0.847,-0.055 0.898,-0.221 0.873,-0.474 0.698,-0.705 0.427,-0.776 0.225,-0.7 0.117,-0.607 0.065,-0.487 0.933,-5.483 0.44,0.307 0.658,0.464 0.685,0.492 0.692,0.503 0.688,0.499 0.665,0.486 0.628,0.459 0.573,0.416 0.502,0.368 0.428,0.304 0.358,0.239 0.597,0.38 0.624,0.355 0.638,0.326 0.651,0.31 0.664,0.284 0.675,0.269 0.689,0.248 0.696,0.231 0.708,0.214 0.709,0.195 0.715,0.185 0.719,0.165 0.726,0.15 0.723,0.146 0.721,0.123 0.726,0.119 0.722,0.102 0.719,0.094 0.709,0.084 0.706,0.079 0.701,0.063 0.681,0.056 0.679,0.051 0.672,0.042 0.648,0.036 0.637,0.029 0.617,0.022 0.607,0.02 0.58,0.009 0.564,0.013 0.538,0.003 h 0.526 l 1.122,-0.003 1.096,-0.025 1.066,-0.039 1.023,-0.051 0.99,-0.064 0.963,-0.082 0.93,-0.094 0.898,-0.106 0.872,-0.124 0.834,-0.132 0.811,-0.149 0.776,-0.158 0.76,-0.175 0.725,-0.185 0.703,-0.199 0.674,-0.214 0.648,-0.226 0.624,-0.235 0.601,-0.248 0.576,-0.259 0.556,-0.279 0.53,-0.286 0.507,-0.299 0.49,-0.307 0.461,-0.324 0.444,-0.333 0.413,-0.346 0.397,-0.358 0.376,-0.363 0.35,-0.375 0.331,-0.384 0.282,-0.356 0.394,-0.498 0.427,-0.547 0.455,-0.559 0.254,-0.32 0.142,0.094 0.489,0.334 0.512,0.35 0.522,0.354 0.519,0.354 0.502,0.341 0.468,0.321 0.423,0.286 0.374,0.247 0.311,0.204 0.221,0.133 0.512,0.324 0.553,0.33 0.557,0.318 0.579,0.311 0.583,0.299 0.601,0.292 0.61,0.282 0.627,0.268 0.635,0.261 0.658,0.251 0.664,0.239 0.679,0.23 0.698,0.22 0.709,0.208 0.722,0.197 0.743,0.187 0.764,0.175 0.768,0.167 0.79,0.152 0.808,0.143 0.823,0.131 0.846,0.119 0.857,0.113 0.879,0.096 0.902,0.086 0.918,0.077 0.934,0.065 0.955,0.05 0.984,0.039 0.998,0.034 1.02,0.017 1.054,0.003 2.018,-0.025 1.916,-0.085 1.801,-0.133 1.695,-0.187 1.59,-0.231 1.497,-0.276 1.401,-0.318 1.304,-0.362 1.218,-0.4 1.13,-0.436 1.051,-0.47 0.973,-0.498 0.896,-0.535 0.821,-0.558 0.745,-0.586 0.679,-0.606 0.607,-0.627 0.537,-0.636 0.476,-0.641 0.415,-0.644 0.356,-0.644 0.298,-0.636 0.248,-0.623 0.202,-0.606 0.157,-0.585 0.125,-0.56 0.089,-0.529 0.063,-0.494 0.038,-0.453 0.024,-0.415 0.011,-0.366 0.003,-0.239 0.019,-0.427 0.022,-0.628 0.002,-0.72 V 19.62 l -0.013,-0.87 -0.011,-0.927 -0.019,-0.961 -0.021,-0.972 -0.027,-0.968 -0.02,-0.943 -0.02,-0.901 -0.028,-0.838 -0.017,-0.751 -0.017,-0.644 -0.007,-0.518 V 9.956 4.455 3.981 3.415 l 0.004,-0.649 0.003,-0.713 0.011,-0.751 0.006,-0.779 0.014,-0.787 0.014,-0.782 0.023,-0.752 0.027,-0.703 0.024,-0.642 0.034,-0.55 0.038,-0.425 0.019,-0.142 0.049,-0.021 0.257,-0.09 0.356,-0.108 0.451,-0.124 0.556,-0.132 0.661,-0.152 0.763,-0.172 0.872,-0.19 0.956,-0.206 1.008,-0.191 0.878,-0.185 0.794,-0.209 0.803,-0.313 0.238,-0.158 0.176,0.125 0.773,0.324 0.75,0.219 0.804,0.183 0.935,0.2 1.088,0.231 0.961,0.205 0.827,0.182 0.705,0.167 0.58,0.151 0.452,0.132 0.332,0.12 0.162,0.067 0.027,0.095 0.041,0.272 0.014,0.116 0.02,0.239 0.017,0.376 0.017,0.477 0.02,0.554 0.008,0.615 0.012,0.662 0.007,0.687 0.007,0.709 0.007,0.705 v 0.695 l 0.004,0.67 V 3.3 l 0.007,0.575 v 0.508 0.436 8.13 l -0.014,1.981 -0.03,1.755 -0.052,1.544 -0.071,1.348 -0.098,1.153 -0.125,0.969 -0.14,0.781 -0.156,0.605 -0.152,0.436 -0.136,0.278 -0.108,0.158 -0.082,0.084 -0.085,0.066 -0.148,0.076 -0.245,0.086 -0.363,0.094 -0.438,0.084 -0.491,0.082 -0.481,0.078 -0.465,0.067 -0.458,0.06 -0.441,0.051 -0.427,0.047 -0.404,0.039 -0.393,0.034 -0.367,0.034 -0.64,0.047 -0.319,0.025 -0.275,0.021 -0.254,0.017 -0.224,0.022 -0.549,0.056 -0.627,0.119 -0.693,0.235 -0.728,0.443 -0.634,0.672 -0.391,0.801 -0.179,0.764 -0.034,0.644 v 1.869 l 0.016,0.679 0.136,0.872 0.51,1.058 0.959,0.785 0.972,0.343 0.865,0.132 0.903,0.062 1.051,0.04 0.672,0.022 0.753,0.028 0.837,0.035 0.918,0.038 0.992,0.047 1.05,0.055 1.11,0.057 1.166,0.058 1.205,0.064 1.236,0.068 1.27,0.065 1.288,0.077 1.305,0.072 1.312,0.074 1.316,0.076 1.306,0.072 1.299,0.077 1.272,0.073 1.251,0.072 1.214,0.068 1.177,0.069 1.126,0.064 1.071,0.061 1.014,0.054 0.943,0.053 0.871,0.044 0.79,0.043 0.699,0.036 0.608,0.026 0.512,0.02 0.42,0.013 0.323,0.008 0.545,-0.008 0.573,-0.038 0.646,-0.102 0.745,-0.248 0.794,-0.503 0.654,-0.804 0.346,-0.926 0.082,-0.802 -0.008,-0.405 -0.017,-0.363 -0.01,-0.422 -0.024,-0.47 -0.023,-0.517 -0.028,-0.542 -0.031,-0.567 -0.026,-0.573 -0.032,-0.572 -0.029,-0.559 -0.027,-0.533 -0.021,-0.491 -0.02,-0.44 -0.017,-0.376 -0.011,-0.293 V 25.575 25.19 l -0.006,-0.465 -0.011,-0.529 -0.006,-0.584 -0.014,-0.645 -0.013,-0.692 -0.017,-0.742 -0.007,-0.786 -0.017,-0.832 -0.017,-0.867 -0.011,-0.905 -0.011,-0.935 -0.012,-0.959 -0.006,-0.982 -0.004,-1.003 V 13.244 4.455 3.981 3.415 2.766 l 0.01,-0.713 0.004,-0.751 0.008,-0.779 0.011,-0.787 0.018,-0.782 0.02,-0.752 0.024,-0.709 0.034,-0.636 0.034,-0.55 0.033,-0.425 0.018,-0.151 0.047,-0.016 0.245,-0.09 0.346,-0.106 0.437,-0.122 0.542,-0.134 0.646,-0.155 0.737,-0.171 0.849,-0.192 0.922,-0.205 1.001,-0.186 0.878,-0.185 0.79,-0.209 0.808,-0.313 0.847,-0.562 0.674,-0.9 0.286,-0.965 0.049,-0.74 z m -199.85,17.09 -0.539,-1.486 -0.645,-1.434 -0.753,-1.387 -0.851,-1.331 -0.953,-1.285 -1.041,-1.23 -1.132,-1.173 -1.215,-1.118 -1.299,-1.068 -1.383,-1.01 -1.452,-0.962 -1.522,-0.903 -1.598,-0.85 -1.668,-0.8 -1.723,-0.745 -1.794,-0.692 -1.854,-0.636 -1.914,-0.585 -1.966,-0.533 -2.025,-0.474 -2.075,-0.427 -2.124,-0.367 -2.176,-0.311 -2.212,-0.256 -2.261,-0.2 -2.306,-0.146 -2.34,-0.084 -2.374,-0.031 -2.082,0.022 -2.062,0.062 -2.042,0.105 -2.018,0.148 -1.99,0.191 -1.964,0.24 -1.933,0.281 -1.895,0.326 -1.862,0.374 -1.829,0.422 -1.78,0.471 -1.729,0.519 -1.688,0.57 -1.639,0.623 -1.584,0.673 -1.522,0.731 -1.469,0.78 -1.411,0.841 -1.333,0.9 -1.267,0.961 -1.198,1.02 -1.116,1.089 -1.034,1.146 -0.943,1.213 -0.85,1.28 -0.751,1.346 -0.646,1.402 -0.537,1.466 -0.421,1.525 -0.307,1.579 -0.18,1.629 -0.059,1.678 0.052,1.532 0.166,1.508 0.271,1.48 0.381,1.447 0.486,1.408 0.595,1.375 0.692,1.331 0.787,1.291 0.888,1.241 0.973,1.198 1.068,1.144 1.153,1.101 1.238,1.052 1.323,1.001 1.4,0.956 1.476,0.901 1.553,0.85 1.631,0.802 1.699,0.748 1.777,0.7 1.848,0.648 1.916,0.593 1.987,0.543 2.055,0.486 2.121,0.431 2.183,0.379 2.255,0.32 2.314,0.269 2.376,0.21 2.438,0.15 2.497,0.09 2.554,0.028 1.284,-0.003 1.257,-0.022 1.239,-0.029 1.217,-0.046 1.194,-0.057 1.177,-0.074 1.157,-0.079 1.142,-0.094 1.116,-0.111 1.102,-0.12 1.075,-0.133 1.065,-0.144 1.045,-0.157 1.021,-0.168 1.003,-0.184 0.987,-0.192 0.971,-0.208 0.952,-0.218 0.929,-0.231 0.916,-0.242 0.895,-0.256 0.878,-0.27 0.862,-0.277 0.847,-0.295 0.828,-0.303 0.811,-0.316 0.793,-0.329 0.777,-0.338 0.76,-0.353 0.742,-0.366 0.726,-0.376 0.738,-0.401 0.876,-0.534 0.824,-0.542 0.781,-0.547 0.742,-0.562 0.709,-0.573 0.671,-0.581 0.631,-0.588 0.597,-0.599 0.563,-0.602 0.526,-0.608 0.495,-0.615 0.461,-0.619 0.429,-0.623 0.398,-0.624 0.373,-0.624 0.335,-0.622 0.313,-0.624 0.281,-0.62 0.251,-0.613 0.234,-0.611 0.206,-0.604 0.184,-0.599 0.16,-0.593 0.138,-0.581 0.116,-0.576 0.099,-0.564 0.078,-0.55 0.066,-0.542 0.042,-0.53 0.033,-0.511 0.017,-0.499 0.011,-0.518 -0.061,-1.612 -0.183,-1.606 -0.302,-1.566 z m -84.34,-17.107 -0.113,-0.887 -0.43,-0.97 -0.702,-0.755 -0.77,-0.444 -0.691,-0.216 -0.573,-0.09 -0.452,-0.027 -0.325,-0.003 h -0.23 l -0.242,0.003 -0.254,0.009 -0.264,0.003 -0.285,0.009 -0.309,0.014 -0.329,0.008 -0.349,0.012 -0.77,0.029 -0.434,0.015 -0.458,0.018 -0.93,0.033 -0.631,0.016 -0.589,0.018 -1.268,0.034 -0.723,0.017 -0.735,0.016 -0.788,0.017 -0.827,0.018 -0.868,0.013 -0.912,0.012 -0.96,0.014 -1.01,0.012 -1.062,0.01 -1.102,0.009 -1.164,0.008 -1.209,0.003 -1.273,0.006 h -1.325 -1.273 l -1.213,-0.006 -1.153,-0.003 -1.1,-0.008 -1.04,-0.009 -0.984,-0.01 -0.936,-0.012 -0.885,-0.014 -0.83,-0.012 -0.794,-0.013 -0.743,-0.018 -0.709,-0.017 -0.658,-0.016 -0.623,-0.017 -1.143,-0.031 -0.513,-0.021 -0.495,-0.016 -0.858,-0.03 -0.441,-0.017 -0.386,-0.019 -0.366,-0.011 -0.347,-0.018 -0.331,-0.009 -0.32,-0.011 -0.304,-0.014 -0.292,-0.009 -0.288,-0.003 -0.282,-0.009 -0.274,-0.003 h -0.343 l -0.793,0.049 -0.831,0.194 -0.818,0.397 -0.689,0.627 -0.443,0.746 -0.197,0.684 -0.058,0.508 -0.003,0.31 v 2.155 l 0.05,0.766 0.323,0.998 0.709,0.889 0.837,0.55 0.82,0.341 0.869,0.268 1.013,0.278 1.259,0.325 1.319,0.32 0.927,0.261 0.538,0.209 0.133,0.081 0.065,0.349 0.033,0.802 0.159,18.291 -0.006,0.712 -0.018,0.695 -0.041,0.657 -0.081,0.612 -0.118,0.55 -0.17,0.499 -0.209,0.439 -0.272,0.401 -0.353,0.378 -0.471,0.374 -0.631,0.363 -0.83,0.338 -1.055,0.298 -1.306,0.239 -1.564,0.15 -1.851,0.055 -0.753,-0.013 -0.763,-0.035 -0.763,-0.064 -0.76,-0.093 -0.756,-0.119 -0.746,-0.15 -0.736,-0.179 -0.725,-0.21 -0.71,-0.242 -0.691,-0.274 -0.675,-0.311 -0.651,-0.341 -0.627,-0.381 -0.614,-0.414 -0.58,-0.451 -0.56,-0.487 -0.369,-0.377 -0.291,-0.357 -0.255,-0.38 -0.217,-0.402 -0.187,-0.439 -0.163,-0.478 -0.136,-0.518 -0.111,-0.565 -0.085,-0.612 -0.068,-0.653 -0.044,-0.695 -0.03,-0.739 -0.014,-0.781 -0.008,-0.816 V 9.539 8.656 4.819 l 0.004,-1.729 0.004,-1.512 0.014,-1.305 0.017,-1.123 0.023,-0.948 0.034,-0.781 0.034,-0.628 0.041,-0.489 0.044,-0.35 0.034,-0.197 0.047,-0.026 0.19,-0.08 0.244,-0.095 0.285,-0.102 0.325,-0.102 0.35,-0.107 0.37,-0.103 0.374,-0.098 0.375,-0.099 0.376,-0.092 0.371,-0.086 0.359,-0.086 0.335,-0.077 0.309,-0.073 0.647,-0.149 0.662,-0.171 0.672,-0.23 0.711,-0.336 0.723,-0.543 0.624,-0.782 0.369,-0.946 0.093,-0.846 v -2.309 l -0.089,-0.833 -0.373,-0.943 -0.661,-0.794 -0.784,-0.487 -0.716,-0.232 -0.593,-0.09 -0.474,-0.027 -0.367,-0.003 h -0.284 l -0.296,0.003 -0.308,0.009 -0.323,0.003 -0.336,0.009 -0.354,0.014 -0.371,0.008 -0.386,0.012 -0.401,0.018 -0.424,0.011 -0.44,0.015 -0.452,0.018 -0.474,0.016 -0.492,0.017 -0.994,0.034 -0.587,0.017 -0.566,0.017 -1.191,0.033 -0.623,0.017 -0.644,0.018 -0.662,0.013 -0.678,0.012 -0.701,0.014 -0.724,0.012 -0.741,0.01 -0.771,0.009 -0.783,0.008 -0.804,0.003 -0.827,0.006 h -0.846 -1.27 l -1.228,-0.006 -1.181,-0.003 -1.141,-0.008 -1.106,-0.009 -1.066,-0.01 -1.027,-0.012 -0.986,-0.014 -0.947,-0.012 -0.92,-0.013 -0.878,-0.018 -0.844,-0.017 -0.813,-0.016 -0.781,-0.017 -0.743,-0.017 -0.715,-0.017 -0.685,-0.018 -0.654,-0.016 -0.635,-0.017 -0.6,-0.016 -0.576,-0.018 -0.55,-0.015 -0.525,-0.015 -0.505,-0.014 -0.479,-0.012 -0.46,-0.008 -0.436,-0.014 -0.416,-0.009 -0.403,-0.003 -0.384,-0.009 -0.366,-0.003 h -0.42 l -0.784,0.049 -0.838,0.194 -0.81,0.397 -0.695,0.627 -0.445,0.746 -0.199,0.678 -0.052,0.509 -0.009,0.315 v 2.152 l 0.05,0.726 0.264,0.935 0.624,0.89 0.814,0.586 0.78,0.324 0.743,0.219 0.804,0.183 0.949,0.2 1.11,0.219 0.952,0.194 0.824,0.177 0.698,0.158 0.578,0.145 0.447,0.131 0.326,0.115 0.169,0.074 0.017,0.077 0.045,0.221 0.01,0.145 0.023,0.312 0.017,0.431 0.018,0.52 0.017,0.59 0.007,0.648 0.013,0.684 0.009,0.708 0.004,0.713 0.007,0.709 v 0.686 l 0.006,0.653 v 0.602 l 0.004,0.537 v 0.458 0.372 5.233 l -0.013,1.428 -0.03,1.342 -0.042,1.25 -0.068,1.169 -0.085,1.084 -0.098,1.004 -0.122,0.926 -0.133,0.849 -0.152,0.771 -0.162,0.701 -0.173,0.627 -0.186,0.56 -0.194,0.487 -0.197,0.43 -0.2,0.363 -0.203,0.312 -0.204,0.265 -0.203,0.222 -0.211,0.197 -0.216,0.166 -0.231,0.144 -0.248,0.137 -0.278,0.121 -0.302,0.104 -0.339,0.098 -0.37,0.082 -0.41,0.073 -0.444,0.06 -0.472,0.047 -0.511,0.039 -0.536,0.025 -0.607,0.021 -0.998,0.051 -0.915,0.104 -0.861,0.17 -0.862,0.319 -0.854,0.577 -0.666,0.866 -0.325,0.951 -0.068,0.77 v 1.75 l 0.051,0.82 0.217,0.939 0.543,0.959 0.844,0.712 0.861,0.36 0.743,0.163 0.685,0.088 0.706,0.07 0.997,0.084 1.025,0.082 1.071,0.089 1.102,0.094 1.143,0.093 1.159,0.095 1.195,0.101 1.207,0.099 1.221,0.104 1.226,0.096 1.232,0.102 1.231,0.103 1.227,0.098 1.215,0.103 1.201,0.099 1.175,0.094 1.154,0.093 1.123,0.09 1.088,0.084 1.045,0.086 1.003,0.083 0.953,0.07 0.896,0.071 0.84,0.062 0.778,0.061 0.705,0.051 0.633,0.047 0.56,0.037 0.475,0.031 0.401,0.02 0.315,0.019 0.325,0.008 0.966,-0.069 0.964,-0.26 0.888,-0.5 0.703,-0.725 0.416,-0.805 0.176,-0.71 0.052,-0.548 0.006,-0.365 v -6.078 l 0.376,0.261 0.615,0.452 0.64,0.478 0.645,0.49 0.638,0.495 0.616,0.478 0.58,0.458 0.533,0.417 0.475,0.372 0.4,0.312 0.342,0.256 0.468,0.323 0.506,0.317 0.519,0.299 0.546,0.281 0.573,0.273 0.587,0.256 0.607,0.244 0.634,0.234 0.647,0.222 0.665,0.214 0.685,0.2 0.708,0.192 0.716,0.184 0.743,0.176 0.755,0.161 0.774,0.153 0.783,0.146 0.805,0.135 0.81,0.125 0.828,0.116 0.844,0.106 0.852,0.104 0.864,0.087 0.871,0.079 0.889,0.07 0.888,0.062 0.907,0.051 0.901,0.042 0.915,0.034 0.923,0.026 0.929,0.013 0.93,0.003 0.802,-0.003 0.777,-0.013 0.764,-0.017 0.749,-0.026 0.72,-0.034 0.704,-0.042 0.689,-0.051 0.672,-0.057 0.654,-0.058 0.638,-0.073 0.62,-0.076 0.607,-0.081 0.593,-0.096 0.577,-0.093 0.559,-0.107 0.55,-0.106 0.54,-0.12 0.521,-0.12 0.509,-0.126 0.502,-0.133 0.485,-0.141 0.467,-0.146 0.469,-0.149 0.455,-0.154 0.444,-0.161 0.427,-0.168 0.423,-0.17 0.414,-0.174 0.402,-0.18 0.392,-0.18 0.384,-0.188 0.399,-0.195 1.17,-0.641 1.065,-0.669 0.949,-0.698 0.855,-0.716 0.743,-0.747 0.648,-0.768 0.545,-0.785 0.462,-0.8 0.363,-0.806 0.278,-0.794 0.209,-0.781 0.14,-0.76 0.096,-0.734 0.051,-0.698 0.019,-0.664 0.007,-0.644 -0.007,-0.408 -0.016,-0.501 -0.021,-0.579 -0.033,-0.658 -0.035,-0.718 -0.043,-0.754 -0.042,-0.79 -0.044,-0.803 -0.048,-0.798 -0.04,-0.781 -0.041,-0.743 -0.034,-0.696 -0.034,-0.622 -0.019,-0.535 -0.014,-0.427 -0.007,-0.301 V 4.455 3.981 l 0.003,-0.566 0.004,-0.649 V 2.053 l 0.011,-0.751 0.006,-0.779 0.016,-0.787 0.018,-0.782 0.016,-0.752 0.028,-0.703 0.03,-0.642 0.033,-0.55 0.038,-0.425 0.017,-0.151 0.048,-0.021 0.244,-0.09 0.346,-0.101 0.438,-0.122 0.539,-0.134 0.641,-0.155 0.742,-0.171 0.848,-0.192 0.926,-0.205 0.966,-0.191 0.848,-0.184 0.774,-0.205 0.789,-0.295 0.838,-0.524 0.712,-0.858 0.347,-0.991 0.064,-0.793 z m -102.799,17.107 -0.532,-1.486 -0.644,-1.434 -0.75,-1.387 -0.854,-1.331 -0.949,-1.285 -1.045,-1.23 -1.13,-1.173 -1.217,-1.118 -1.303,-1.068 -1.373,-1.01 -1.458,-0.962 -1.523,-0.903 -1.597,-0.85 -1.662,-0.8 -1.732,-0.745 -1.794,-0.692 -1.852,-0.636 -1.913,-0.585 -1.974,-0.533 -2.021,-0.474 -2.076,-0.427 -2.125,-0.367 -2.167,-0.311 -2.218,-0.256 -2.266,-0.2 -2.299,-0.146 -2.34,-0.084 -2.377,-0.031 -2.082,0.022 -2.056,0.062 -2.041,0.105 -2.018,0.148 -1.994,0.191 -1.964,0.24 -1.933,0.281 -1.899,0.326 -1.861,0.374 -1.819,0.422 -1.783,0.471 -1.733,0.519 -1.692,0.57 -1.634,0.623 -1.584,0.673 -1.526,0.731 -1.468,0.78 -1.401,0.841 -1.339,0.9 -1.272,0.961 -1.197,1.02 -1.113,1.089 -1.034,1.146 -0.943,1.213 -0.855,1.28 -0.748,1.346 -0.012,0.024 -0.067,-0.472 -0.112,-0.726 -0.135,-0.832 -0.153,-0.921 -0.174,-0.979 -0.185,-1.006 -0.194,-1.017 -0.199,-0.995 -0.208,-0.946 -0.21,-0.88 -0.214,-0.799 -0.234,-0.725 -0.321,-0.764 -0.587,-0.776 -0.607,-0.388 -0.377,-0.188 -0.37,-0.158 -0.404,-0.154 -0.43,-0.155 -0.482,-0.153 -0.525,-0.157 -0.563,-0.163 -0.607,-0.166 -0.651,-0.166 -0.691,-0.171 -0.73,-0.172 -0.77,-0.169 -0.807,-0.172 -0.841,-0.17 -0.875,-0.167 -0.898,-0.163 -0.94,-0.161 -0.96,-0.157 -0.987,-0.149 -1.011,-0.141 -1.033,-0.137 -1.056,-0.129 -1.071,-0.12 -1.088,-0.109 -1.099,-0.096 -1.12,-0.084 -1.125,-0.073 -1.137,-0.056 -1.142,-0.043 -1.146,-0.026 -1.16,-0.007 -1.984,0.025 -1.974,0.082 -1.96,0.128 -1.933,0.183 -1.905,0.234 -1.89,0.282 -1.852,0.334 -1.827,0.383 -1.784,0.431 -1.75,0.478 -1.705,0.529 -1.665,0.577 -1.618,0.627 -1.567,0.669 -1.52,0.724 -1.464,0.767 -1.404,0.811 -1.344,0.866 -1.281,0.909 -1.211,0.961 -1.139,1.008 -1.072,1.058 -0.987,1.11 -0.909,1.156 -0.814,1.208 -0.725,1.254 -0.628,1.307 -0.525,1.349 -0.411,1.391 -0.298,1.43 -0.183,1.468 -0.065,1.503 0.068,1.571 0.197,1.541 0.329,1.51 0.448,1.473 0.566,1.434 0.682,1.387 0.786,1.344 0.893,1.302 0.99,1.251 1.085,1.2 1.169,1.156 1.255,1.105 1.34,1.055 1.417,1.008 1.496,0.96 1.563,0.908 1.638,0.863 1.696,0.81 1.77,0.76 1.825,0.709 1.886,0.656 1.942,0.607 1.998,0.551 2.045,0.499 2.095,0.444 2.14,0.383 2.184,0.334 2.218,0.273 2.266,0.213 2.289,0.153 2.326,0.096 2.351,0.028 0.732,-0.003 0.715,-0.008 0.723,-0.014 0.722,-0.02 0.716,-0.026 0.718,-0.035 0.71,-0.034 0.701,-0.042 0.705,-0.043 0.695,-0.052 0.689,-0.055 0.681,-0.06 0.676,-0.063 0.665,-0.069 0.654,-0.072 0.644,-0.073 0.638,-0.078 0.617,-0.083 0.607,-0.088 0.596,-0.084 0.581,-0.089 0.563,-0.094 0.552,-0.098 0.533,-0.099 0.521,-0.098 0.497,-0.106 0.481,-0.107 0.465,-0.107 0.444,-0.11 0.426,-0.116 0.404,-0.115 0.462,-0.147 0.644,-0.258 0.634,-0.379 0.557,-0.488 0.468,-0.593 0.332,-0.675 0.185,-0.718 0.031,-0.712 -0.084,-0.589 -2.405,-9.428 -0.095,-0.448 -0.254,-0.7 -0.495,-0.756 -0.725,-0.623 -0.831,-0.402 -0.852,-0.217 -0.881,-0.107 -0.946,-0.034 h -5.959 l -0.82,0.034 -0.964,0.274 -0.814,0.443 -0.654,0.513 -0.537,0.529 -0.494,0.534 -0.482,0.546 -0.468,0.507 -0.091,0.072 -0.211,0.133 -0.291,0.175 -0.362,0.193 -0.432,0.212 -0.499,0.218 -0.555,0.218 -0.611,0.219 -0.668,0.203 -0.718,0.188 -0.764,0.166 -0.811,0.138 -0.857,0.107 -0.896,0.064 -0.949,0.025 -0.43,-0.005 -0.476,-0.02 -0.495,-0.03 -0.518,-0.052 -0.533,-0.063 -0.553,-0.082 -0.563,-0.102 -0.573,-0.12 -0.569,-0.141 -0.573,-0.166 -0.578,-0.183 -0.565,-0.206 -0.56,-0.23 -0.549,-0.256 -0.54,-0.281 -0.522,-0.304 -0.502,-0.33 -0.488,-0.354 -0.458,-0.383 -0.438,-0.41 -0.417,-0.439 -0.383,-0.47 -0.37,-0.509 -0.331,-0.532 -0.303,-0.577 -0.274,-0.618 -0.241,-0.666 -0.207,-0.713 -0.163,-0.765 -0.118,-0.819 -0.078,-0.874 -0.028,-0.936 0.024,-0.789 0.069,-0.752 0.114,-0.717 0.157,-0.678 0.187,-0.649 0.23,-0.619 0.268,-0.593 0.298,-0.563 0.339,-0.538 0.367,-0.519 0.406,-0.493 0.433,-0.473 0.466,-0.453 0.505,-0.431 0.529,-0.404 0.559,-0.389 0.588,-0.368 0.62,-0.34 0.642,-0.321 0.66,-0.296 0.686,-0.276 0.708,-0.248 0.726,-0.226 0.739,-0.203 0.756,-0.181 0.767,-0.154 0.777,-0.132 0.786,-0.103 0.793,-0.086 0.793,-0.058 0.805,-0.035 0.8,-0.008 h 0.522 l 0.519,0.013 0.513,0.017 0.505,0.025 0.501,0.03 0.489,0.039 0.485,0.042 0.488,0.051 0.482,0.061 0.481,0.063 0.475,0.069 0.475,0.076 0.478,0.082 0.478,0.09 0.479,0.089 0.481,0.101 0.485,0.103 0.492,0.115 0.495,0.115 0.495,0.124 0.512,0.129 0.512,0.133 0.515,0.14 0.53,0.144 0.541,0.151 0.547,0.153 0.557,0.157 0.565,0.169 0.587,0.165 0.59,0.175 0.603,0.18 0.591,0.175 0.145,0.043 0.215,0.081 0.297,0.109 0.353,0.142 0.398,0.163 0.426,0.17 0.455,0.178 0.458,0.185 0.472,0.183 0.457,0.174 0.447,0.167 0.435,0.158 0.417,0.131 0.406,0.125 0.445,0.099 0.562,0.064 0.859,-0.09 0.828,-0.312 -0.106,0.39 -0.304,1.579 -0.188,1.629 -0.061,1.678 0.058,1.532 0.166,1.508 0.272,1.48 0.379,1.447 0.492,1.408 0.59,1.375 0.692,1.331 0.79,1.291 0.885,1.241 0.98,1.198 1.066,1.144 1.153,1.101 1.237,1.052 1.315,1.001 1.401,0.954 1.476,0.903 1.556,0.85 1.628,0.802 1.702,0.748 1.777,0.7 1.849,0.648 1.919,0.593 1.981,0.543 2.058,0.486 2.119,0.431 2.188,0.379 2.248,0.32 2.313,0.269 2.381,0.21 2.438,0.15 2.495,0.09 2.555,0.028 1.285,-0.003 1.257,-0.022 1.239,-0.029 1.217,-0.046 1.198,-0.057 1.179,-0.074 1.154,-0.079 1.139,-0.094 1.123,-0.111 1.091,-0.12 1.086,-0.133 1.057,-0.144 1.042,-0.157 1.024,-0.168 1.007,-0.184 0.98,-0.192 0.974,-0.208 0.949,-0.218 0.933,-0.231 0.915,-0.242 0.899,-0.256 0.882,-0.27 0.861,-0.277 0.844,-0.295 0.828,-0.303 0.81,-0.316 0.791,-0.329 0.776,-0.338 0.763,-0.353 0.742,-0.366 0.727,-0.376 0.719,-0.393 0.878,-0.517 0.837,-0.534 0.794,-0.546 0.76,-0.555 0.716,-0.572 0.674,-0.576 0.64,-0.59 0.608,-0.596 0.566,-0.606 0.536,-0.61 0.496,-0.618 0.458,-0.62 0.434,-0.627 0.396,-0.627 0.366,-0.628 0.332,-0.627 0.31,-0.627 0.281,-0.625 0.247,-0.622 0.224,-0.61 0.203,-0.61 0.177,-0.602 0.156,-0.6 0.125,-0.584 0.115,-0.572 0.093,-0.568 0.077,-0.555 0.058,-0.537 0.044,-0.525 0.03,-0.511 0.02,-0.5 v -0.513 l -0.061,-1.608 -0.179,-1.606 -0.305,-1.566 z m -157.573,-0.904 -0.052,-0.487 -0.083,-0.662 -0.119,-0.837 -0.146,-0.973 -0.18,-1.089 -0.203,-1.173 -0.234,-1.224 -0.261,-1.246 -0.299,-1.247 -0.325,-1.218 -0.36,-1.16 -0.4,-1.093 -0.475,-1.02 -0.597,-0.963 -0.762,-0.787 -0.608,-0.405 -0.563,-0.294 -0.59,-0.26 -0.648,-0.248 -0.698,-0.243 -0.767,-0.236 -0.824,-0.238 -0.878,-0.235 -0.936,-0.23 -0.984,-0.232 -1.04,-0.229 -1.086,-0.223 -1.125,-0.221 -1.171,-0.218 -1.2,-0.219 -1.234,-0.203 -1.262,-0.202 -1.285,-0.196 -1.306,-0.188 -1.319,-0.178 -1.336,-0.167 -1.339,-0.158 -1.347,-0.148 -1.347,-0.133 -1.342,-0.123 -1.34,-0.108 -1.323,-0.098 -1.304,-0.077 -1.291,-0.064 -1.27,-0.047 -1.238,-0.031 -1.214,-0.008 -2.482,0.03 -2.476,0.085 -2.476,0.141 -2.462,0.201 -2.449,0.257 -2.421,0.316 -2.401,0.374 -2.367,0.433 -2.336,0.495 -2.296,0.549 -2.252,0.615 -2.204,0.675 -2.15,0.734 -2.093,0.797 -2.031,0.867 -1.963,0.931 -1.896,0.99 -1.807,1.063 -1.74,1.131 -1.641,1.198 -1.554,1.273 -1.461,1.344 -1.351,1.42 -1.237,1.494 -1.116,1.573 -0.99,1.643 -0.865,1.724 -0.715,1.798 -0.564,1.865 -0.41,1.932 -0.252,1.993 -0.08,2.05 0.051,1.733 0.169,1.719 0.275,1.704 0.393,1.686 0.502,1.673 0.611,1.643 0.722,1.618 0.831,1.587 0.942,1.553 1.052,1.517 1.16,1.476 1.265,1.435 1.374,1.386 1.481,1.336 1.584,1.285 1.689,1.233 1.8,1.18 1.903,1.113 2.001,1.058 2.109,0.99 2.215,0.926 2.316,0.863 2.422,0.785 2.522,0.718 2.631,0.639 2.738,0.562 2.835,0.484 2.943,0.4 3.049,0.317 3.154,0.231 3.255,0.141 3.361,0.046 1.543,-0.012 1.499,-0.031 1.462,-0.05 1.421,-0.074 1.387,-0.089 1.346,-0.111 1.316,-0.129 1.282,-0.144 1.244,-0.166 1.217,-0.185 1.181,-0.199 1.15,-0.218 1.117,-0.23 1.082,-0.253 1.063,-0.268 1.024,-0.278 0.997,-0.298 0.97,-0.312 0.939,-0.324 0.912,-0.343 0.889,-0.353 0.854,-0.368 0.831,-0.38 0.808,-0.393 0.779,-0.405 0.757,-0.414 0.735,-0.427 0.706,-0.439 0.685,-0.449 0.661,-0.455 0.634,-0.469 0.607,-0.47 0.377,-0.299 0.376,-0.303 0.369,-0.321 0.374,-0.329 0.366,-0.34 0.366,-0.355 0.36,-0.368 0.359,-0.384 0.353,-0.401 0.346,-0.416 0.332,-0.434 0.329,-0.453 0.322,-0.467 0.305,-0.487 0.299,-0.509 0.281,-0.525 0.275,-0.546 0.255,-0.568 0.243,-0.589 0.228,-0.61 0.213,-0.627 0.191,-0.653 0.179,-0.675 0.16,-0.696 0.145,-0.716 0.126,-0.743 0.105,-0.773 0.087,-0.79 0.073,-0.82 0.047,-0.844 0.03,-0.869 0.01,-0.92 -0.026,-1.016 -0.086,-0.972 -0.179,-0.938 -0.302,-0.914 -0.468,-0.872 -0.637,-0.777 -0.787,-0.621 -0.862,-0.453 -0.895,-0.316 -0.932,-0.205 -0.98,-0.132 -1.049,-0.088 -1.129,-0.049 -1.231,-0.027 -1.346,-0.008 h -1.479 -40.715 -1.421 l -1.255,-0.003 -1.095,-0.017 -0.942,-0.036 -0.783,-0.05 -0.618,-0.068 -0.454,-0.081 -0.272,-0.077 -0.014,-0.008 -0.037,-0.189 -0.033,-0.385 -0.014,-0.529 0.004,-0.196 0.016,-0.256 0.035,-0.302 0.046,-0.346 0.071,-0.376 0.099,-0.415 0.125,-0.443 0.157,-0.46 0.193,-0.491 0.23,-0.499 0.265,-0.523 0.316,-0.524 0.359,-0.537 0.41,-0.543 0.465,-0.546 0.525,-0.545 0.587,-0.544 0.658,-0.536 0.736,-0.529 0.807,-0.518 0.892,-0.5 0.98,-0.476 1.075,-0.458 1.17,-0.427 1.272,-0.392 1.383,-0.355 1.485,-0.315 1.605,-0.265 1.719,-0.218 1.845,-0.158 1.966,-0.097 2.113,-0.035 h 0.312 l 0.343,0.005 0.363,0.004 0.38,0.007 0.4,0.009 0.42,0.014 0.435,0.02 0.461,0.022 0.478,0.031 0.499,0.033 0.514,0.038 0.543,0.047 0.563,0.057 0.584,0.059 0.604,0.073 0.627,0.076 0.653,0.084 0.669,0.099 0.7,0.107 0.714,0.116 0.743,0.128 0.762,0.14 0.788,0.15 0.811,0.166 0.837,0.176 0.862,0.192 0.878,0.204 0.916,0.218 0.929,0.235 0.956,0.247 0.987,0.264 0.983,0.279 0.319,0.097 0.441,0.145 0.543,0.184 0.624,0.213 0.688,0.239 0.726,0.256 0.759,0.261 0.766,0.265 0.771,0.261 0.743,0.251 0.714,0.23 0.669,0.209 0.614,0.185 0.563,0.149 0.546,0.115 0.624,0.073 0.956,-0.104 0.916,-0.346 0.773,-0.61 0.505,-0.729 0.257,-0.692 0.109,-0.571 0.033,-0.428 0.004,-0.38 z m 296.865,41.285 0.254,0.514 0.208,0.315 0.168,0.239 0.136,0.188 0.086,0.124 0.026,0.037 0.139,0.273 12.375,15.054 0.363,0.458 0.355,0.44 0.352,0.413 0.364,0.394 0.397,0.374 0.441,0.354 0.485,0.317 0.528,0.268 0.557,0.2 0.553,0.142 0.559,0.095 0.57,0.064 0.587,0.033 0.625,0.018 0.677,0.008 0.743,0.003 h 15.892 l 1.237,-0.003 0.993,-0.008 0.821,-0.031 0.74,-0.065 0.816,-0.182 1.022,-0.563 0.702,-1.098 0.182,-1.395 -0.511,-1.081 -0.512,-0.554 -0.432,-0.371 -0.458,-0.354 -0.505,-0.363 -0.548,-0.385 -0.584,-0.391 -0.617,-0.403 -0.621,-0.4 -0.624,-0.393 -0.614,-0.38 -0.584,-0.358 -0.535,-0.329 -0.478,-0.29 -0.417,-0.248 -0.326,-0.193 -1.022,-0.594 -1.006,-0.583 -0.987,-0.573 -0.962,-0.559 -0.954,-0.555 -0.932,-0.537 -0.919,-0.534 -0.902,-0.521 -0.885,-0.512 -0.872,-0.498 -0.854,-0.492 -0.838,-0.478 -0.827,-0.47 -0.807,-0.459 -0.794,-0.445 -0.78,-0.439 -0.77,-0.424 -0.746,-0.413 -0.74,-0.406 -0.725,-0.393 -0.706,-0.384 -0.701,-0.367 -0.683,-0.358 -0.674,-0.347 -0.658,-0.336 -0.648,-0.325 -0.64,-0.311 -0.621,-0.303 -0.614,-0.291 -0.601,-0.277 -0.59,-0.264 -0.596,-0.255 -0.333,-0.138 -0.308,-0.121 -0.316,-0.11 -0.318,-0.101 -0.339,-0.09 -0.346,-0.079 -0.352,-0.059 -0.361,-0.046 -0.375,-0.035 -0.383,-0.021 -0.418,-0.016 -0.445,-0.009 -0.495,-0.007 h -0.546 l -0.607,-0.006 h -0.681 l -0.268,0.006 -0.374,0.016 -0.477,0.045 -0.573,0.124 -0.689,0.256 -0.787,0.534 -0.685,0.952 -0.251,1.247 z m 203.05,3.589 0.034,0.39 0.057,0.4 0.085,0.42 0.116,0.43 0.143,0.445 0.174,0.447 0.204,0.458 0.249,0.456 0.278,0.465 0.321,0.461 0.357,0.461 0.393,0.453 0.443,0.444 0.479,0.433 0.526,0.425 0.567,0.409 0.606,0.389 0.657,0.376 0.7,0.354 0.753,0.326 0.793,0.313 0.841,0.286 0.895,0.265 0.943,0.234 1.001,0.21 1.058,0.178 1.108,0.154 1.171,0.121 1.228,0.085 1.292,0.056 1.362,0.017 1.428,-0.039 1.438,-0.107 1.435,-0.183 1.421,-0.256 1.387,-0.329 1.353,-0.402 1.308,-0.482 1.255,-0.559 1.184,-0.648 1.109,-0.739 1.018,-0.845 0.898,-0.956 0.767,-1.085 0.586,-1.208 0.373,-1.313 0.122,-1.342 -0.024,-0.644 -0.068,-0.58 -0.111,-0.576 -0.16,-0.568 -0.199,-0.555 -0.238,-0.542 -0.278,-0.53 -0.313,-0.512 -0.348,-0.498 -0.391,-0.484 -0.42,-0.464 -0.451,-0.444 -0.481,-0.427 -0.515,-0.409 -0.547,-0.394 -0.573,-0.371 -0.601,-0.355 -0.636,-0.332 -0.663,-0.315 -0.692,-0.292 -0.715,-0.276 -0.752,-0.253 -0.777,-0.231 -0.801,-0.208 -0.834,-0.189 -0.859,-0.16 -0.894,-0.141 -0.913,-0.121 -0.949,-0.089 -0.973,-0.068 -1.004,-0.039 -1.027,-0.012 -1.028,0.012 -1,0.042 -0.967,0.065 -0.939,0.095 -0.909,0.119 -0.882,0.145 -0.847,0.166 -0.822,0.188 -0.782,0.212 -0.766,0.237 -0.73,0.255 -0.698,0.278 -0.676,0.294 -0.641,0.317 -0.614,0.336 -0.58,0.354 -0.556,0.371 -0.522,0.394 -0.495,0.405 -0.454,0.427 -0.431,0.44 -0.396,0.455 -0.364,0.475 -0.329,0.487 -0.295,0.497 -0.259,0.514 -0.222,0.526 -0.184,0.533 -0.145,0.541 -0.102,0.546 -0.071,0.556 -0.017,0.546 z m 282.953,-85.328 7.085,0.003 c 7.38,0.008 13.357,6.024 13.351,13.437 l 0.536,88.415 c -0.002,0.502 -0.034,0.996 -0.088,1.483 -0.015,0.134 -0.042,0.264 -0.061,0.397 -0.048,0.345 -0.104,0.689 -0.178,1.025 -0.037,0.168 -0.085,0.333 -0.128,0.499 -0.077,0.293 -0.159,0.583 -0.254,0.868 -0.06,0.176 -0.125,0.348 -0.191,0.52 -0.103,0.27 -0.214,0.537 -0.335,0.798 -2.119,4.615 -6.757,7.822 -12.15,7.813 l -485.645,-0.521 -425.504,0.521 c -7.386,0.013 -13.378,-5.989 -13.385,-13.403 l 0.532,-88.415 c -0.009,-6.949 5.245,-13.421 11.983,-14.208 l 904.436,0.765 c -0.001,10e-4 -0.003,0.002 -0.004,0.003" /></g><g
           transform="translate(585.0815,171.4346)"
           id="g32"><path
             id="path34"
             style="fill:#e00a18;fill-opacity:1;fill-rule:nonzero;stroke:none"
             d="m 0,0 -0.515,0.555 -0.536,0.526 -0.56,0.499 -0.586,0.469 -0.601,0.441 -0.624,0.413 -0.64,0.375 -0.662,0.351 -0.674,0.312 -0.686,0.282 -0.705,0.242 -0.715,0.214 -0.733,0.172 -0.737,0.14 -0.749,0.099 -0.759,0.059 -0.77,0.02 -0.987,-0.02 -0.943,-0.059 -0.885,-0.099 -0.827,-0.133 -0.787,-0.162 -0.726,-0.197 -0.681,-0.222 -0.638,-0.251 -0.59,-0.273 -0.556,-0.295 -0.512,-0.32 -0.478,-0.338 -0.445,-0.358 -0.414,-0.377 -0.383,-0.396 -0.356,-0.414 -0.329,-0.435 -0.302,-0.452 -0.281,-0.469 -0.257,-0.487 -0.234,-0.509 -0.211,-0.519 -0.187,-0.535 -0.166,-0.545 -0.145,-0.565 -0.123,-0.571 -0.102,-0.581 -0.088,-0.589 -0.057,-0.597 -0.044,-0.598 -0.031,-0.602 -0.006,-0.593 0.02,-1.097 0.071,-1.041 0.116,-0.999 0.155,-0.956 0.198,-0.913 0.236,-0.867 0.269,-0.832 0.305,-0.791 0.342,-0.75 0.367,-0.717 0.393,-0.675 0.425,-0.645 0.453,-0.604 0.475,-0.572 0.498,-0.543 0.53,-0.508 0.545,-0.479 0.563,-0.438 0.59,-0.413 0.604,-0.386 0.62,-0.35 0.638,-0.32 0.652,-0.29 0.67,-0.256 0.676,-0.231 0.681,-0.197 0.692,-0.166 0.701,-0.135 0.706,-0.107 0.709,-0.072 0.709,-0.048 0.699,-0.013 1.247,0.034 1.144,0.099 1.055,0.161 0.969,0.214 0.888,0.256 0.814,0.308 0.739,0.336 0.683,0.376 0.613,0.406 0.563,0.435 0.515,0.461 0.468,0.482 0.428,0.504 0.382,0.526 0.347,0.537 0.312,0.555 0.281,0.563 0.245,0.568 0.213,0.567 0.184,0.571 0.163,0.566 0.131,0.549 0.106,0.534 0.092,0.512 0.068,0.487 0.05,0.461 0.037,0.418 0.027,0.383 0.017,0.338 0.003,0.295 0.004,0.242 v 0.166 l -0.02,0.872 -0.065,0.828 -0.097,0.819 -0.14,0.804 -0.176,0.78 -0.214,0.768 -0.248,0.755 -0.281,0.73 -0.316,0.714 -0.346,0.692 -0.377,0.673 -0.409,0.649 -0.435,0.628 -0.461,0.602 z" /></g><g
           transform="translate(397.9468,171.4346)"
           id="g36"><path
             id="path38"
             style="fill:#e00a18;fill-opacity:1;fill-rule:nonzero;stroke:none"
             d="M 0,0 -0.512,0.555 -1.047,1.081 -1.61,1.58 -2.193,2.049 -2.798,2.49 l -0.62,0.413 -0.644,0.375 -0.658,0.351 -0.675,0.312 -0.686,0.282 -0.705,0.242 -0.716,0.214 -0.725,0.172 -0.744,0.14 -0.752,0.099 -0.756,0.059 -0.77,0.02 -0.99,-0.02 -0.94,-0.059 -0.884,-0.099 -0.831,-0.133 -0.777,-0.162 -0.736,-0.197 -0.681,-0.226 -0.631,-0.247 -0.601,-0.273 -0.549,-0.295 -0.515,-0.32 -0.475,-0.338 -0.444,-0.358 -0.414,-0.377 -0.384,-0.399 -0.359,-0.411 -0.325,-0.435 -0.306,-0.452 -0.281,-0.469 -0.258,-0.487 -0.229,-0.509 -0.215,-0.519 -0.187,-0.535 -0.163,-0.545 -0.146,-0.565 -0.125,-0.571 -0.104,-0.581 -0.082,-0.589 -0.061,-0.597 -0.045,-0.598 -0.027,-0.605 -0.007,-0.59 0.024,-1.097 0.071,-1.041 0.109,-0.999 0.16,-0.951 0.199,-0.918 0.231,-0.867 0.275,-0.832 0.302,-0.791 0.336,-0.75 0.369,-0.717 0.398,-0.675 0.42,-0.645 0.454,-0.604 0.478,-0.572 0.502,-0.543 0.523,-0.508 0.545,-0.473 0.566,-0.444 0.587,-0.413 0.604,-0.386 0.623,-0.35 0.641,-0.32 0.648,-0.29 0.669,-0.256 0.678,-0.231 0.682,-0.197 0.695,-0.166 0.702,-0.135 0.702,-0.107 0.709,-0.072 0.704,-0.048 0.7,-0.013 1.251,0.034 1.143,0.099 1.054,0.161 0.971,0.214 0.891,0.256 0.81,0.308 0.744,0.336 0.675,0.376 0.616,0.411 0.56,0.43 0.519,0.461 0.465,0.482 0.427,0.504 0.383,0.526 0.349,0.537 0.309,0.555 0.282,0.563 0.243,0.568 0.217,0.567 0.184,0.571 0.155,0.566 0.133,0.546 0.108,0.533 0.088,0.516 0.072,0.487 0.054,0.461 0.034,0.418 0.023,0.383 0.021,0.338 0.003,0.295 0.004,0.239 v 0.166 l -0.021,0.875 -0.064,0.828 -0.098,0.819 -0.142,0.804 -0.174,0.785 -0.213,0.767 -0.245,0.751 -0.284,0.73 -0.311,0.714 -0.348,0.695 -0.379,0.67 -0.407,0.649 -0.43,0.628 -0.465,0.602 z" /></g><g
           transform="translate(927.3525,157.9307)"
           id="g40"><path
             id="path42"
             style="fill:#e00a18;fill-opacity:1;fill-rule:nonzero;stroke:none"
             d="M 0,0 H -0.011 L -0.736,0.044 -1.082,0.035 -1.547,0.01 l -0.536,-0.048 -0.591,-0.065 -0.627,-0.081 -0.661,-0.093 -0.691,-0.107 -0.703,-0.119 -0.706,-0.133 -0.708,-0.14 -0.698,-0.151 -0.673,-0.152 -0.643,-0.158 -0.611,-0.158 -0.559,-0.163 -0.502,-0.154 -0.892,-0.31 -0.715,-0.312 -0.589,-0.315 -0.484,-0.313 -0.379,-0.304 -0.298,-0.286 -0.228,-0.267 -0.169,-0.253 -0.132,-0.235 -0.092,-0.213 -0.061,-0.205 -0.044,-0.182 -0.027,-0.173 -0.017,-0.151 -0.003,-0.142 -0.004,-0.095 0.017,-0.348 0.034,-0.308 0.064,-0.294 0.089,-0.287 0.113,-0.265 0.134,-0.248 0.173,-0.233 0.206,-0.228 0.255,-0.221 0.316,-0.209 0.382,-0.201 0.469,-0.188 0.566,-0.162 0.668,-0.124 0.781,-0.085 0.912,-0.03 0.379,0.003 0.552,0.027 0.672,0.056 0.766,0.09 0.836,0.131 0.871,0.179 0.867,0.231 0.859,0.286 0.803,0.346 0.723,0.397 0.621,0.444 0.509,0.481 0.396,0.517 0.292,0.581 0.189,0.675 0.082,0.926 v 2.978 L 0.002,-0.03 Z" /></g><g
           transform="translate(193.2949,290.1831)"
           id="g44"><path
             id="path46"
             style="fill:#e00a18;fill-opacity:1;fill-rule:nonzero;stroke:none"
             d="m 0,0 h 5.08 c 3.774,0 3.906,-0.28 3.906,-2.092 v -12.274 c 0,-1.256 0,-6.836 -0.39,-7.531 -0.523,-0.904 -0.915,-1.043 -5.344,-1.812 -2.21,-0.419 -2.73,-0.489 -2.73,-1.396 v -1.531 c 0,-0.348 0,-0.838 1.304,-0.838 2.212,0 16.273,0.28 20.179,0.28 7.552,0 14.582,-0.28 16.665,-0.28 1.041,0 1.954,0.139 1.954,0.974 v 1.464 c 0,0.558 0,1.117 -3.645,1.466 -5.989,0.488 -6.511,1.046 -6.902,2.091 -0.52,0.977 -0.52,6.764 -0.52,8.44 v 9.832 c 0,2.301 0,2.508 0.911,2.927 0.651,0.211 1.566,0.28 3.776,0.28 h 8.591 c 2.347,0 2.736,0 3.259,1.119 l 1.823,4.322 C 48.437,6.83 47.527,6.83 45.182,6.83 H 33.334 c -1.952,0 -3.518,0 -4.559,0.77 -1.174,0.838 -2.084,2.721 -2.084,4.324 0,4.118 6.382,5.23 11.979,5.23 1.693,0 4.428,-0.142 7.551,-0.348 2.086,-0.139 4.56,-0.487 5.341,-0.487 0.91,0 1.69,0.068 1.954,1.531 l 1.172,5.58 c 0.39,2.025 -0.523,2.025 -4.428,2.025 -14.193,0 -23.05,0 -33.201,-7.116 C 10.157,13.386 9.379,11.229 9.379,9.133 9.379,6.692 9.113,6.624 5.338,6.624 1.69,6.557 1.567,6.557 0.781,5.441 L -1.822,1.119 C -1.952,1.046 -2.082,0.7 -2.082,0.488 -2.082,0 -1.429,0 0,0" /></g><g
           transform="translate(278.0874,273.7231)"
           id="g48"><path
             id="path50"
             style="fill:#e00a18;fill-opacity:1;fill-rule:nonzero;stroke:none"
             d="m 0,0 c 0,-4.977 -7.557,-5.372 -9.169,-5.372 -4.587,0 -5.825,2.189 -5.825,4.049 0,0.596 0,2.984 4.46,4.246 2.231,0.663 6.322,1.327 8.18,1.327 C 0,4.25 0,3.392 0,2.191 Z m -28.752,12.681 c 0.125,0 2.977,0.531 4.337,0.798 5.082,0.927 9.173,1.658 14.378,1.658 C -7.311,15.137 0,15.073 0,11.551 0,8.567 -0.373,8.102 -5.201,7.701 l -18.47,-1.658 c -3.345,-0.266 -5.821,-0.464 -7.064,-1.594 -1.238,-1.127 -2.725,-3.78 -2.725,-7.032 0,-5.709 5.326,-9.161 16.481,-9.161 4.588,0 6.074,0.598 10.162,2.252 1.369,0.537 7.191,2.991 7.934,2.991 0.866,0 0.992,-0.531 1.859,-3.849 0.494,-1.661 0.494,-1.728 3.345,-1.528 l 19.707,1.395 c 1.734,0.133 1.734,0.53 1.734,1.126 v 1.394 c 0,0.865 -0.246,0.931 -2.232,1.13 -3.345,0.332 -4.212,0.398 -5.082,0.994 -2.23,1.528 -2.23,9.559 -2.23,12.082 0,0.861 0,1.923 0.127,3.186 0,0.596 0.247,3.584 0.247,4.246 0,1.398 0,5.314 -7.809,7.238 -6.321,1.527 -14.502,1.527 -16.482,1.527 -12.144,0 -19.83,-1.796 -20.699,-2.061 -1.363,-0.399 -2.354,-0.859 -2.601,-2.453 l -0.371,-4.183 c -0.122,-0.598 -0.122,-1.062 0.618,-1.062" /></g><g
           transform="translate(310.1841,291.4463)"
           id="g52"><path
             id="path54"
             style="fill:#e00a18;fill-opacity:1;fill-rule:nonzero;stroke:none"
             d="m 0,0 c 2.484,-0.196 3.099,-0.262 4.212,-0.663 4.094,-1.389 4.711,-9.621 4.711,-11.879 v -3.653 c 0,-1.126 0,-5.64 -0.121,-6.369 -0.248,-1.528 -0.621,-1.661 -5.328,-2.525 -2.233,-0.396 -2.606,-0.465 -2.606,-1.324 v -1.465 c 0,-0.328 0,-0.859 1.242,-0.859 2.972,0 6.567,0.328 23.547,0.328 7.189,0 9.169,-0.328 11.03,-0.328 1.859,0 2.353,0.395 2.353,1.194 v 1.527 c 0,0.797 -0.494,0.797 -4.463,1.128 -5.699,0.462 -6.068,0.73 -6.068,6.305 v 2.126 c 0.119,3.713 0,4.114 0.246,7.098 0.372,4.317 6.938,4.913 10.411,4.913 3.964,0 9.296,-0.795 10.533,-0.795 1.861,0 1.982,0.531 2.229,1.791 0.747,3.45 1.116,6.039 1.116,6.836 0,1.527 -5.7,1.527 -7.685,1.527 -7.683,0 -10.654,-2.387 -15.489,-6.301 -1.984,-1.662 -2.23,-1.864 -2.729,-1.864 -0.742,0 -0.742,0.135 -1.114,1.661 L 25.283,3.451 C 25.159,4.579 24.912,4.848 23.92,4.848 21.937,4.848 8.181,3.849 0,3.451 -1.484,3.386 -1.98,3.322 -1.98,2.46 V 0.933 C -1.98,0.268 -1.363,0.136 0,0" /></g><g
           transform="translate(370.7866,291.4463)"
           id="g56"><path
             id="path58"
             style="fill:#e00a18;fill-opacity:1;fill-rule:nonzero;stroke:none"
             d="m 0,0 c 4.464,-0.529 4.959,-0.596 5.702,-1.388 1.736,-1.864 2.232,-7.371 2.232,-9.029 v -5.778 c 0,-1.657 0,-5.772 -0.124,-6.369 -0.372,-1.528 -0.745,-1.594 -5.454,-2.525 -2.109,-0.396 -2.603,-0.465 -2.603,-1.324 v -1.465 c 0,-0.263 0.125,-0.859 1.241,-0.859 2.479,0 14.374,0.263 18.833,0.263 4.715,0 10.411,-0.263 13.39,-0.263 0.618,0 1.362,0.066 1.362,0.859 v 1.465 c 0,0.793 -0.744,1.061 -2.105,1.324 -3.223,0.6 -4.339,0.864 -4.712,1.929 -0.248,0.729 -0.248,5.839 -0.248,6.965 v 3.852 c 0,1.327 0,5.11 2.85,7.433 1.61,1.33 4.836,2.858 8.924,2.858 2.476,0 4.708,-0.534 6.195,-1.528 1.491,-0.999 2.111,-2.258 2.111,-7.106 v -11.018 c 0,-2.19 -0.62,-2.454 -5.578,-3.385 -2.108,-0.396 -2.481,-0.465 -2.481,-1.324 v -1.465 c 0,-0.328 0,-0.859 1.242,-0.859 1.361,0 15.493,0.263 18.094,0.263 2.6,0 12.271,-0.263 14.994,-0.263 0.742,0 1.363,0.066 1.363,0.859 v 1.465 c 0,0.859 -0.374,0.928 -2.724,1.324 -4.342,0.731 -4.712,0.931 -5.081,1.929 -0.496,0.729 -0.496,5.839 -0.496,6.965 v 3.653 c 0,1.195 0.246,5.375 2.105,7.168 2.11,2.057 6.073,3.322 9.665,3.322 2.729,0 5.21,-0.67 6.695,-1.864 1.362,-1.06 1.609,-1.988 1.609,-7.431 v -10.488 c 0,-2.124 -0.74,-2.323 -3.839,-2.986 -2.728,-0.664 -3.226,-0.733 -3.226,-1.592 v -1.465 c 0,-0.263 0,-0.859 1.243,-0.859 2.85,0 10.036,0.263 15.119,0.263 4.954,0 12.763,-0.263 17.101,-0.263 0.497,0 1.364,0 1.364,0.859 v 1.465 c 0,0.859 -0.372,0.928 -2.726,1.324 -4.337,0.864 -4.832,0.931 -5.207,1.929 -0.248,0.729 -0.248,5.839 -0.248,6.965 v 3.653 c 0,1.195 0.248,7.234 0.126,8.626 0,1.93 -0.373,8.633 -17.228,8.633 -8.548,0 -14.004,-1.395 -18.091,-3.784 -0.62,-0.332 -4.589,-2.855 -4.708,-2.855 -0.252,0 -1.617,1.594 -2.357,2.453 -1.983,2.39 -6.325,4.186 -15.614,4.186 -4.093,0 -11.405,-0.334 -15.62,-2.853 -0.989,-0.598 -6.071,-4.118 -6.567,-4.118 -0.617,0 -0.867,0.726 -1.114,1.926 L 24.662,3.654 C 24.542,4.579 24.416,5.112 23.178,5.112 21.937,5.112 7.687,3.919 -0.122,3.386 -1.98,3.253 -2.229,3.123 -2.229,2.192 V 0.998 C -2.229,0.467 -1.859,0.203 0,0" /></g><g
           transform="translate(515.5396,276.646)"
           id="g60"><path
             id="path62"
             style="fill:#e00a18;fill-opacity:1;fill-rule:nonzero;stroke:none"
             d="m 0,0 c 2.232,0.664 6.323,1.328 8.182,1.328 2.356,0 2.356,-0.859 2.356,-2.059 v -2.192 c 0,-4.976 -7.562,-5.371 -9.174,-5.371 -4.582,0 -5.822,2.189 -5.822,4.048 0,0.596 0,2.984 4.458,4.246 m -6.444,-14.667 c 4.586,0 6.073,0.598 10.164,2.252 1.363,0.537 7.187,2.991 7.926,2.991 0.87,0 0.997,-0.531 1.864,-3.849 0.496,-1.661 0.496,-1.728 3.345,-1.528 l 19.706,1.395 c 1.738,0.133 1.738,0.531 1.738,1.126 v 1.394 c 0,0.865 -0.249,0.931 -2.236,1.13 -3.343,0.332 -4.21,0.399 -5.075,0.994 -2.232,1.529 -2.232,9.559 -2.232,12.082 0,0.862 0,1.923 0.122,3.186 0,0.597 0.249,3.584 0.249,4.246 0,1.398 0,5.314 -7.81,7.238 -6.32,1.527 -14.499,1.527 -16.482,1.527 -12.146,0 -19.828,-1.796 -20.698,-2.06 -1.363,-0.399 -2.354,-0.86 -2.601,-2.454 l -0.374,-4.183 c -0.119,-0.598 -0.119,-1.062 0.621,-1.062 0.124,0 2.971,0.531 4.342,0.799 5.074,0.926 9.167,1.657 14.373,1.657 2.729,0 10.04,-0.064 10.04,-3.586 0,-2.984 -0.374,-3.449 -5.209,-3.85 L -13.136,3.12 c -3.345,-0.266 -5.821,-0.464 -7.064,-1.594 -1.238,-1.127 -2.726,-3.779 -2.726,-7.031 0,-5.71 5.331,-9.162 16.482,-9.162" /></g><g
           transform="translate(589.0317,261.9795)"
           id="g64"><path
             id="path66"
             style="fill:#e00a18;fill-opacity:1;fill-rule:nonzero;stroke:none"
             d="m 0,0 c 9.294,0 18.589,2.123 19.581,2.789 0.623,0.394 1.86,7.565 1.86,7.897 0,0.198 0,0.729 -0.744,0.729 -0.621,0 -3.72,-1.26 -4.462,-1.461 C 11.033,8.561 7.561,7.631 2.851,7.631 c -7.188,0 -14.749,3.055 -14.749,10.22 0,8.298 8.179,9.892 12.274,9.892 4.459,0 7.559,-1.661 8.054,-2.125 1.236,-1.193 1.732,-1.99 2.85,-1.923 h 4.581 c 1.863,0 2.109,0.398 2.234,1.062 l 1.857,6.639 c 0.124,0.465 -0.123,0.992 -0.992,1.26 -2.725,0.793 -8.798,1.528 -14.62,1.528 -19.21,0 -34.827,-7.439 -34.827,-17.922 C -30.487,6.24 -16.11,0 0,0" /></g><g
           transform="translate(619.1445,291.2505)"
           id="g68"><path
             id="path70"
             style="fill:#e00a18;fill-opacity:1;fill-rule:nonzero;stroke:none"
             d="m 0,0 c 0.745,-0.066 2.729,-0.132 4.958,-0.533 2.358,-0.465 2.976,-1.725 2.976,-9.688 V -16 c 0,-1.455 0,-5.771 -0.125,-6.368 -0.245,-1.528 -0.617,-1.594 -5.453,-2.526 -2.107,-0.395 -2.475,-0.464 -2.475,-1.323 v -1.466 c 0,-0.262 0,-0.859 1.235,-0.859 1.613,0 3.224,0.2 18.218,0.2 11.651,0 13.385,-0.2 14.872,-0.2 0.62,0 1.36,0 1.36,0.859 v 1.466 c 0,0.859 -0.368,0.928 -2.719,1.323 -4.218,0.865 -4.712,0.932 -5.083,1.93 -0.251,0.729 -0.251,5.839 -0.251,6.964 v 5.979 c 0,3.914 0.128,7.429 0.128,8.761 0,0.727 0.248,4.311 0.248,5.11 0,0.795 -0.622,0.862 -1.614,0.862 C 24.541,4.712 6.321,3.647 1.116,3.518 -1.238,3.449 -1.362,3.385 -1.362,2.321 V 1.061 C -1.362,0.262 -0.992,0.063 0,0" /></g><g
           transform="translate(635.5068,300.4746)"
           id="g72"><path
             id="path74"
             style="fill:#e00a18;fill-opacity:1;fill-rule:nonzero;stroke:none"
             d="m 0,0 c 8.179,0 12.394,3.119 12.394,6.176 0,3.779 -6.077,5.839 -11.527,5.839 -11.031,0 -12.889,-4.251 -12.889,-5.976 C -12.022,3.187 -8.181,0 0,0" /></g><g
           transform="translate(685.3252,276.646)"
           id="g76"><path
             id="path78"
             style="fill:#e00a18;fill-opacity:1;fill-rule:nonzero;stroke:none"
             d="m 0,0 c 2.231,0.664 6.32,1.328 8.181,1.328 2.354,0 2.354,-0.859 2.354,-2.059 v -2.192 c 0,-4.976 -7.561,-5.371 -9.173,-5.371 -4.586,0 -5.824,2.189 -5.824,4.048 0,0.596 0,2.984 4.462,4.246 m -6.445,-14.667 c 4.586,0 6.073,0.598 10.164,2.252 1.363,0.537 7.184,2.991 7.929,2.991 0.871,0 0.993,-0.531 1.861,-3.849 0.494,-1.661 0.494,-1.728 3.346,-1.528 l 19.707,1.395 c 1.732,0.133 1.732,0.531 1.732,1.126 v 1.394 c 0,0.865 -0.244,0.931 -2.228,1.13 -3.347,0.332 -4.216,0.399 -5.084,0.994 -2.23,1.529 -2.23,9.559 -2.23,12.082 0,0.862 0,1.923 0.123,3.186 0,0.597 0.247,3.584 0.247,4.246 0,1.398 0,5.314 -7.807,7.238 -6.317,1.527 -14.503,1.527 -16.48,1.527 -12.149,0 -19.829,-1.796 -20.696,-2.06 -1.368,-0.399 -2.358,-0.86 -2.604,-2.454 l -0.371,-4.183 c -0.125,-0.598 -0.125,-1.062 0.617,-1.062 0.123,0 2.976,0.531 4.34,0.799 5.08,0.926 9.17,1.657 14.372,1.657 2.725,0 10.042,-0.064 10.042,-3.586 0,-2.984 -0.372,-3.449 -5.207,-3.85 L -13.137,3.12 c -3.344,-0.266 -5.824,-0.464 -7.064,-1.594 -1.24,-1.127 -2.725,-3.779 -2.725,-7.031 0,-5.71 5.328,-9.162 16.481,-9.162" /></g><g
           transform="translate(745.4326,274.458)"
           id="g80"><path
             id="path82"
             style="fill:#e00a18;fill-opacity:1;fill-rule:nonzero;stroke:none"
             d="m 0,0 c 8.177,-2.592 10.409,-3.255 10.409,-5.246 0,-1.261 -2.6,-3.118 -8.053,-3.118 -6.819,0 -10.165,3.05 -10.536,3.319 -2.234,1.594 -2.109,1.922 -3.472,1.922 h -2.355 c -2.106,0 -2.106,-0.132 -2.229,-1.193 l -0.623,-4.447 c -0.121,-1.063 -0.246,-1.528 1.49,-1.925 0.992,-0.332 9.292,-1.791 18.343,-1.791 11.399,0 26.644,2.188 26.644,10.818 0,2.454 -1.489,3.917 -2.726,4.845 -3.097,2.324 -5.579,3.052 -16.36,6.309 -6.569,1.986 -8.676,3.049 -8.676,4.774 0,1.595 2.353,3.322 7.811,3.322 7.063,0 8.799,-2.056 10.408,-4.051 0.496,-0.663 0.742,-0.727 1.983,-0.727 h 2.352 c 0.994,0 1.489,0.129 1.862,0.531 l 0.99,5.241 c 0.125,0.931 0.25,1.26 -1.114,1.658 C 24.659,20.642 15.491,21.705 9.169,21.705 -5.701,21.705 -16.98,17.52 -16.98,11.15 -16.98,5.372 -8.927,2.785 0,0" /></g></g></g></g></svg>